<svg width="434" height="240" viewBox="0 0 434 240" fill="none" xmlns="http://www.w3.org/2000/svg">
<g clip-path="url(#clip0_101_122)">
<path d="M403 162.921C402.697 162.975 402.393 163.062 402.09 163.062C399.023 163.073 395.968 163.04 392.901 163.073C392.165 163.083 391.753 162.78 391.395 162.184C389.683 159.323 387.939 156.485 386.216 153.635C381.589 146.007 376.973 138.39 372.347 130.761C366.951 121.866 361.555 112.981 356.159 104.085C355.931 103.716 355.801 103.25 355.249 103.023C355.205 103.359 355.129 103.651 355.118 103.944C355.108 105.699 355.108 107.455 355.108 109.21C355.108 126.46 355.108 143.71 355.108 160.96C355.108 161.577 355.205 162.217 354.967 162.888C354.772 162.942 354.566 163.04 354.36 163.04C352.15 163.051 349.95 163.062 347.74 163.051C347.48 163.051 347.22 162.964 347.014 162.921C346.732 162.444 346.808 161.989 346.808 161.545C346.797 159.703 346.808 157.85 346.808 156.008C346.808 135.464 346.808 114.931 346.808 94.3871C346.808 93.802 346.808 93.2169 346.84 92.6318C346.851 92.415 346.938 92.2092 346.981 92.0358C348.032 91.8191 355.693 91.7541 357.903 91.9383C358.077 92.1767 358.304 92.4584 358.488 92.7509C360.428 95.9474 362.367 99.1438 364.296 102.34C368.11 108.657 371.924 114.985 375.738 121.313C380.202 128.714 384.677 136.114 389.152 143.515C390.669 146.018 392.175 148.531 393.692 151.024C393.898 151.359 394.137 151.674 394.451 152.118C394.581 151.858 394.7 151.728 394.711 151.587C394.743 151.143 394.733 150.688 394.733 150.233C394.733 131.401 394.733 112.58 394.733 93.7478C394.733 93.1735 394.646 92.5776 394.863 91.96C395.74 91.7324 396.64 91.8733 397.528 91.8516C398.427 91.8299 399.327 91.8408 400.226 91.8516C401.115 91.8624 402.014 91.7974 402.978 91.9275C403.022 92.2308 403.087 92.4801 403.098 92.7401C403.119 93.0543 403.108 93.3686 403.108 93.6828C403.108 116.155 403.108 138.628 403.108 161.111C403.108 161.696 403.173 162.282 403 162.921Z" fill="black"/>
<path d="M106.512 128.031C106.544 132.3 105.927 136.97 104.399 141.488C101.235 150.828 95.2863 157.709 86.2821 161.881C82.6956 163.538 78.9357 164.546 75.035 165.109C71.7627 165.575 68.4904 165.705 65.1964 165.51C59.237 165.153 53.5376 163.82 48.2499 160.96C40.1234 156.571 34.7816 149.897 31.9535 141.142C30.6858 137.208 30.079 133.178 29.949 129.06C29.7756 123.751 30.4041 118.55 32.0619 113.49C33.6222 108.711 36.0601 104.431 39.4841 100.747C43.7207 96.1857 48.8892 93.0976 54.827 91.2881C59.5187 89.847 64.3296 89.2836 69.2272 89.3919C73.8864 89.5003 78.4589 90.1829 82.8798 91.7107C88.8392 93.7694 93.9319 97.1067 98.0168 101.95C100.78 105.222 102.795 108.917 104.204 112.948C105.851 117.661 106.523 122.548 106.512 128.031ZM66.8109 158.164C70.9284 158.186 73.7456 157.871 76.5194 157.211C81.482 156.008 85.8703 153.732 89.5327 150.135C92.9458 146.776 95.2429 142.745 96.6082 138.173C98.1468 133.048 98.4177 127.814 97.7892 122.526C97.345 118.734 96.3048 115.115 94.5386 111.724C91.353 105.569 86.4988 101.289 80.0301 98.8512C76.6711 97.5834 73.1821 96.9658 69.5956 96.8575C65.5107 96.7275 61.5016 97.1392 57.6008 98.3961C52.9091 99.9022 48.8675 102.438 45.5953 106.133C42.4205 109.708 40.4051 113.902 39.2782 118.528C38.3139 122.537 38.0213 126.611 38.3572 130.729C38.6389 134.218 39.3324 137.598 40.6543 140.827C43.7857 148.477 49.2468 153.689 57.0591 156.409C60.6348 157.633 64.3188 158.153 66.8109 158.164Z" fill="black"/>
<path d="M193.672 140.73C196.37 140.091 198.992 139.733 201.581 139.224C202.004 139.69 201.928 140.21 201.993 140.687C202.546 144.642 204.171 148.098 206.858 151.045C209.404 153.83 212.547 155.737 216.133 156.886C220.966 158.424 225.863 158.576 230.804 157.427C232.971 156.918 235.008 156.073 236.84 154.805C240.231 152.465 242.225 149.279 242.496 145.129C242.712 141.727 241.575 138.855 238.877 136.667C237.284 135.366 235.474 134.478 233.578 133.741C231.433 132.907 229.212 132.322 226.969 131.812C222.927 130.891 218.885 129.992 214.865 129.028C212.102 128.367 209.426 127.413 206.891 126.113C204.539 124.899 202.459 123.35 200.79 121.28C199.198 119.308 198.201 117.033 197.821 114.552C197.03 109.307 197.843 104.312 200.628 99.7398C202.957 95.9149 206.306 93.271 210.39 91.5265C212.471 90.638 214.649 90.0638 216.881 89.7279C220.435 89.1969 223.978 89.2294 227.5 89.9663C233.546 91.234 238.562 94.192 242.29 99.1872C244.262 101.82 245.54 104.778 246.31 107.975C246.418 108.408 246.451 108.852 246.516 109.329C245.681 109.806 244.771 109.871 243.926 110.12C243.102 110.358 242.268 110.553 241.434 110.748C240.567 110.944 239.722 111.279 238.812 111.312C238.432 110.705 238.443 110.055 238.302 109.459C237.674 106.772 236.493 104.377 234.662 102.319C232.408 99.7723 229.602 98.1253 226.308 97.3776C222.071 96.4133 217.889 96.6625 213.847 98.3312C210.835 99.5772 208.462 101.593 207.032 104.583C205.72 107.335 205.482 110.207 206.349 113.132C206.815 114.725 207.747 116.036 208.993 117.131C210.26 118.247 211.723 119.038 213.273 119.666C215.277 120.489 217.368 121.02 219.481 121.497C223.87 122.505 228.269 123.48 232.646 124.531C235.583 125.246 238.422 126.308 241.087 127.749C243.276 128.93 245.259 130.404 246.917 132.3C249.192 134.901 250.471 137.902 250.731 141.348C251.012 144.956 250.557 148.445 249.105 151.782C247.09 156.43 243.731 159.822 239.299 162.206C236.731 163.582 234.012 164.481 231.151 165.001C225.528 166.031 219.936 165.803 214.432 164.264C209.209 162.802 204.626 160.212 200.855 156.279C196.998 152.259 194.658 147.48 193.758 141.987C193.704 141.608 193.704 141.25 193.672 140.73Z" fill="black"/>
<path d="M282.077 155.596C284.428 155.628 286.715 155.607 289.012 155.607C291.266 155.607 293.519 155.607 295.762 155.607C298.059 155.607 300.356 155.607 302.654 155.607C304.951 155.607 307.248 155.607 309.545 155.607C311.799 155.607 314.052 155.607 316.295 155.607C318.582 155.607 320.879 155.596 323.089 155.618C323.219 155.791 323.317 155.856 323.327 155.921C323.479 158.207 323.36 160.504 323.403 162.845C323.089 162.921 322.84 163.029 322.591 163.04C321.876 163.072 321.15 163.062 320.434 163.062C305.666 163.062 290.886 163.062 276.118 163.062C275.403 163.062 274.687 163.116 273.929 162.964C273.864 162.671 273.799 162.411 273.777 162.162C273.756 161.848 273.766 161.534 273.766 161.22C273.766 138.747 273.766 116.274 273.766 93.8018C273.766 93.2275 273.68 92.6316 273.907 91.9923C274.157 91.949 274.406 91.884 274.666 91.8731C275.208 91.8515 275.749 91.8623 276.291 91.8623C291.06 91.8623 305.839 91.8623 320.608 91.8623C321.139 91.8623 321.681 91.7864 322.255 91.9923C322.298 92.2199 322.363 92.4366 322.385 92.6533C322.482 94.2461 322.406 98.2443 322.266 99.187C322.038 99.2303 321.789 99.317 321.529 99.3387C321.085 99.3604 320.629 99.3495 320.174 99.3495C307.974 99.3495 295.762 99.3495 283.562 99.3495C283.074 99.3495 282.586 99.3712 282.153 99.382C281.774 99.978 281.893 100.531 281.893 101.062C281.882 105.472 281.893 109.892 281.882 114.302C281.882 116.556 281.871 118.81 281.882 121.053C281.882 121.54 281.785 122.05 282.045 122.526C282.489 122.808 282.998 122.689 283.486 122.689C287.311 122.7 291.146 122.689 294.971 122.689C302.177 122.689 309.382 122.689 316.588 122.7C317.119 122.7 317.661 122.602 318.159 122.841C318.387 123.935 318.387 128.562 318.159 129.775C317.931 129.819 317.671 129.884 317.422 129.894C316.978 129.916 316.523 129.905 316.068 129.905C305.211 129.905 294.365 129.905 283.507 129.905C283.063 129.905 282.619 129.927 282.11 129.949C282.023 130.241 281.904 130.48 281.904 130.729C281.871 131.444 281.882 132.17 281.882 132.885C281.882 139.863 281.882 146.841 281.893 153.83C281.861 154.361 281.795 154.902 282.077 155.596Z" fill="black"/>
<path d="M175.566 155.607C175.793 156.766 175.836 161.209 175.663 162.856C175.446 162.921 175.197 163.019 174.948 163.051C174.59 163.084 174.233 163.062 173.864 163.062C160.168 163.062 146.483 163.062 132.787 163.062C132.213 163.062 131.617 163.149 131.032 162.91C130.989 162.715 130.924 162.553 130.924 162.379C130.924 139.051 130.924 115.722 130.935 92.3936C130.935 92.2744 131.021 92.1443 131.086 91.9601C131.292 91.9276 131.498 91.8735 131.715 91.8626C134.142 91.8518 136.569 91.8518 139.05 91.8626C139.126 92.1985 139.213 92.4369 139.235 92.6969C139.267 93.0979 139.245 93.5096 139.245 93.9105C139.245 113.815 139.245 133.72 139.245 153.624C139.245 154.199 139.267 154.784 139.278 155.412C139.603 155.488 139.852 155.575 140.112 155.585C140.513 155.618 140.925 155.596 141.326 155.596C152.139 155.596 162.942 155.596 173.756 155.596C174.352 155.607 174.937 155.607 175.566 155.607Z" fill="black"/>
<path d="M158.565 35.6053C158.727 35.8112 158.89 36.0171 159.052 36.223C159.215 36.4288 159.345 36.6455 159.518 36.8406C159.724 37.0898 159.952 37.3065 160.169 37.5449C160.537 37.9349 160.905 38.325 161.252 38.7259C161.642 39.1593 161.989 39.6361 162.401 40.0587C162.888 40.5679 163.408 41.0447 163.928 41.5323C164.394 41.9657 164.882 42.3775 165.359 42.8C165.803 43.1901 166.247 43.591 166.724 43.9377C167.114 44.2303 167.547 44.4578 167.959 44.7071C168.263 44.8804 168.555 45.0646 168.88 45.1947C169.205 45.3355 169.552 45.4439 169.888 45.5522C170.083 45.6172 170.278 45.6606 170.473 45.7256C170.917 45.8664 171.351 46.0398 171.795 46.1698C172.066 46.2565 172.358 46.2782 172.629 46.354C172.911 46.4299 173.171 46.5599 173.453 46.6141C173.951 46.7224 174.46 46.8091 174.959 46.8958C175.49 46.9825 176.021 47.0692 176.552 47.145C177.213 47.2425 177.884 47.3401 178.545 47.4159C178.968 47.4701 179.401 47.4918 179.824 47.5351C179.9 47.5459 179.965 47.5893 180.03 47.6218C179.997 47.6868 179.976 47.7518 179.932 47.8168C179.39 48.5536 178.643 49.1171 178.22 49.9622C177.949 50.5148 177.559 51.0024 177.223 51.5333C177.093 51.7284 176.996 51.9451 176.898 52.1618C176.768 52.4543 176.638 52.7577 176.519 53.0611C176.476 53.1695 176.454 53.2778 176.411 53.3862C176.292 53.7004 176.259 54.1013 176.042 54.3072C175.869 54.4697 175.641 54.6431 175.436 54.8056C175.371 54.8598 175.316 54.9356 175.241 54.9898C174.785 55.3474 174.298 55.6616 173.864 56.0517C173.258 56.6043 172.662 57.1786 172.12 57.7854C171.557 58.4246 171.058 59.1181 170.527 59.7791C170.408 59.9199 170.3 60.0716 170.18 60.2125C169.931 60.5159 169.79 60.8626 169.639 61.2202C169.422 61.7511 169.075 62.2387 168.859 62.7696C168.653 63.2789 168.512 63.8315 168.393 64.3733C168.273 64.9259 168.208 65.5001 168.133 66.0636C168.057 66.5945 168.219 67.1363 168.035 67.678C167.948 67.9489 168.035 68.2848 168.078 68.5882C168.198 69.4984 168.328 70.3977 168.447 71.3079C168.501 71.6763 168.523 72.0555 168.588 72.4239C168.631 72.684 168.718 72.9332 168.772 73.1933C168.891 73.7567 168.999 74.3201 169.119 74.8944C169.119 74.9161 169.129 74.9377 169.129 74.9486C169.259 75.3387 169.411 75.7287 169.519 76.1296C169.639 76.5739 169.736 77.029 169.845 77.4732C169.855 77.5057 169.866 77.5274 169.877 77.5599C170.007 77.8633 170.159 78.1667 170.267 78.4809C170.397 78.8385 170.484 79.2069 170.603 79.5644C170.679 79.7812 170.787 79.987 170.896 80.2471C171.015 80.1279 171.134 80.0412 171.231 79.922C171.578 79.4886 171.914 79.0335 172.261 78.5893C172.738 77.9716 173.203 77.3649 173.669 76.7473C173.789 76.5847 173.919 76.4222 174.027 76.2597C174.265 75.8913 174.482 75.512 174.72 75.1436C174.948 74.7861 175.208 74.461 175.403 74.0926C175.652 73.6375 175.869 73.1607 176.097 72.7057C176.259 72.3806 176.432 72.0664 176.595 71.7413C176.725 71.4704 176.833 71.1995 176.942 70.9287C177.018 70.7228 177.072 70.5061 177.126 70.2894C177.213 69.9751 177.31 69.6609 177.397 69.3467C177.418 69.2925 177.408 69.2275 177.429 69.1625C177.516 68.8916 177.635 68.6207 177.7 68.339C177.765 68.0248 177.798 67.6997 177.819 67.3855C177.863 66.8437 177.819 66.302 177.874 65.7602C177.949 64.9909 177.863 64.1999 177.776 63.4197C177.635 62.217 177.7 60.9926 177.375 59.8116C177.158 59.0423 177.299 58.2079 177.028 57.4061C176.833 56.8318 176.823 56.1926 176.714 55.5749C176.627 55.044 176.877 54.4589 176.985 53.8955C176.985 53.8738 177.018 53.8738 177.028 53.8521C177.115 53.6571 177.202 53.4729 177.288 53.2778C177.375 53.0611 177.44 52.8444 177.548 52.6385C177.733 52.281 177.917 51.9234 178.123 51.5767C178.383 51.1324 178.643 50.6773 178.946 50.2764C179.38 49.713 179.878 49.1821 180.333 48.6295C180.572 48.3477 180.756 48.3586 180.853 48.7161C180.983 49.1604 181.059 49.6263 181.157 50.0706C181.265 50.5473 181.373 51.0349 181.482 51.5117C181.482 51.5225 181.482 51.5333 181.493 51.5442C181.623 51.8584 181.763 52.1726 181.872 52.4977C181.991 52.8444 182.078 53.2128 182.175 53.5704C182.186 53.6029 182.197 53.6246 182.219 53.6462C182.349 53.9171 182.511 54.1772 182.598 54.4589C182.706 54.7948 182.836 55.0982 183.107 55.239C183.107 55.3907 183.085 55.5208 183.118 55.6399C183.14 55.7483 183.226 55.835 183.27 55.9325C183.367 56.1492 183.432 56.3984 183.562 56.5935C183.952 57.1894 184.44 57.742 184.754 58.3705C185.014 58.8906 185.404 59.2806 185.773 59.6924C186.466 60.4834 187.322 61.0901 188.189 61.6861C188.633 62.0003 189.142 62.217 189.576 62.5421C189.977 62.8455 190.388 63.1164 190.811 63.3872C191.071 63.5606 191.331 63.7231 191.602 63.8857C191.895 64.059 192.187 64.2107 192.48 64.3733C192.772 64.5466 193.054 64.7417 193.346 64.915C193.715 65.1317 194.105 65.3159 194.484 65.5218C194.723 65.6518 194.928 65.8252 195.167 65.9444C195.579 66.1503 196.023 66.3128 196.435 66.5187C196.727 66.6704 196.792 66.6595 196.9 66.3561C196.846 66.302 196.76 66.2586 196.738 66.1936C196.575 65.836 196.424 65.4676 196.272 65.0992C196.109 64.6875 195.958 64.2757 195.795 63.864C195.709 63.6365 195.611 63.4089 195.514 63.1922C195.394 62.9322 195.232 62.6829 195.134 62.4012C195.004 62.0437 194.918 61.6644 194.809 61.296C194.798 61.2635 194.777 61.2202 194.766 61.1877C194.647 60.9168 194.517 60.6459 194.419 60.3642C194.3 59.9849 194.224 59.584 194.127 59.2048C194.127 59.1831 194.116 59.1614 194.105 59.1506C193.975 58.8256 193.823 58.5005 193.715 58.1646C193.628 57.872 193.639 57.5686 193.455 57.2761C193.271 56.9727 193.238 56.5826 193.162 56.2251C193.043 55.6725 192.924 55.109 192.816 54.5564C192.805 54.5239 192.805 54.5022 192.794 54.4697C192.653 53.9821 192.512 53.5054 192.382 53.0178C192.274 52.6385 192.187 52.2593 192.09 51.8801C192.09 51.8584 192.079 51.8367 192.068 51.8259C191.862 51.4683 191.634 51.1216 191.461 50.7532C191.158 50.1464 190.724 49.648 190.258 49.1712C189.597 48.4994 188.774 48.066 187.929 47.6651C187.734 47.5784 187.528 47.5134 187.322 47.4701C187.04 47.4051 186.748 47.3726 186.466 47.3184C186.033 47.2425 185.599 47.1233 185.155 47.1017C184.591 47.08 184.017 47.1342 183.454 47.1667C182.934 47.1992 182.424 47.2317 181.904 47.275C181.763 47.015 182.034 47.0042 182.153 46.9066C182.511 46.6032 182.847 46.2782 183.226 45.9965C183.595 45.7256 183.996 45.5089 184.386 45.2705C184.808 45.0104 185.22 44.7287 185.653 44.4795C185.989 44.2845 186.336 44.1219 186.683 43.9377C186.834 43.8619 186.997 43.7969 187.149 43.7102C187.354 43.6018 187.55 43.461 187.766 43.3743C188.026 43.266 188.33 43.2334 188.557 43.0709C189.023 42.735 189.576 42.67 190.074 42.4641C190.345 42.3558 190.605 42.2583 190.876 42.1499C190.898 42.1607 190.93 42.1607 190.952 42.1716C190.952 42.1499 190.952 42.1391 190.952 42.1174C191.288 41.9874 191.624 41.8682 191.96 41.7382C192.111 41.684 192.263 41.5973 192.415 41.554C192.577 41.5106 192.75 41.489 192.913 41.5106C192.967 41.5215 193.021 41.7057 193.021 41.814C193.032 42.2366 193.086 42.6483 192.989 43.0818C192.902 43.4718 192.989 43.9161 193.043 44.3278C193.184 45.498 193.076 46.6899 193.411 47.8602C193.563 48.3802 193.509 48.9545 193.704 49.4963C193.899 50.0381 193.953 50.634 194.072 51.2083C194.072 51.23 194.072 51.2516 194.083 51.2625C194.354 51.6092 194.376 52.0643 194.571 52.4435C194.69 52.6819 194.842 52.9094 194.983 53.137C195.004 53.1261 195.037 53.1153 195.058 53.1045C195.026 53.1803 194.993 53.2562 194.95 53.332C195.058 53.3862 195.145 53.4187 195.167 53.4295C195.199 53.6029 195.188 53.7438 195.253 53.8413C195.416 54.0905 195.589 54.3397 195.784 54.5781C196.044 54.914 196.315 55.2499 196.597 55.5749C196.662 55.6508 196.803 55.6616 196.879 55.6941C196.922 55.7808 196.955 55.9 197.03 55.965C197.366 56.2576 197.691 56.5718 198.071 56.8102C198.623 57.1677 199.208 57.4603 199.783 57.7745C199.924 57.8504 200.075 57.9262 200.216 57.9804C200.552 58.1104 200.899 58.2188 201.235 58.3488C201.321 58.3813 201.397 58.468 201.484 58.4897C201.755 58.5547 202.036 58.5872 202.307 58.6413C202.524 58.6847 202.741 58.7389 202.957 58.8039C203.25 58.8906 203.543 58.9989 203.846 59.0531C204.225 59.1289 204.615 59.1506 205.005 59.2048C205.027 59.2048 205.049 59.2156 205.059 59.2156C205.287 59.2481 205.525 59.2915 205.753 59.324C205.98 59.3673 206.197 59.4432 206.425 59.454C206.728 59.4757 207.064 59.3565 207.324 59.4648C207.606 59.5732 207.866 59.5298 208.137 59.5515C208.375 59.5624 208.505 59.4865 208.451 59.2156C208.364 58.8039 208.267 58.3813 208.191 57.9696C208.093 57.4495 208.115 56.9185 207.898 56.4201C207.768 56.1167 207.801 55.7591 207.66 55.4232C207.508 55.044 207.541 54.5998 207.378 54.188C207.216 53.7871 207.162 53.332 207.053 52.8986C207.042 52.8661 207.01 52.8336 206.999 52.7902C206.869 52.4327 206.728 52.0643 206.609 51.6959C206.501 51.3708 206.414 51.0349 206.306 50.7207C206.23 50.4931 206.154 50.2764 206.056 50.0597C205.948 49.8214 205.807 49.583 205.699 49.3446C205.59 49.1062 205.536 48.8462 205.417 48.6186C205.211 48.2177 204.994 47.8168 204.745 47.4376C204.453 47.0042 204.149 46.5599 203.781 46.1807C203.369 45.7473 202.925 45.3572 202.394 45.043C201.971 44.7829 201.592 44.4578 201.148 44.2303C200.812 44.0569 200.498 43.8511 200.162 43.6777C199.761 43.4718 199.36 43.266 198.948 43.0818C198.645 42.9409 198.331 42.8434 198.027 42.7025C197.561 42.4966 197.117 42.2691 196.651 42.0849C196.315 41.944 195.947 41.8682 195.611 41.749C195.199 41.5973 194.788 41.4348 194.376 41.2722C194.322 41.2506 194.289 41.1856 194.246 41.1422C194.289 41.1097 194.322 41.0555 194.376 41.0339C194.69 40.9472 195.015 40.828 195.34 40.7847C195.839 40.7088 196.337 40.698 196.825 40.5138C197.28 40.3512 197.778 40.3729 198.266 40.232C198.927 40.037 199.653 40.0912 200.335 39.8745C200.823 39.7228 201.386 39.777 201.906 39.7228C202.437 39.6794 202.957 39.6253 203.488 39.5603C203.878 39.5061 204.269 39.4086 204.659 39.3652C205.385 39.3002 206.121 39.2569 206.847 39.2135C206.956 39.2027 207.151 39.2677 207.162 39.3327C207.216 39.5278 207.227 39.7336 207.205 39.9395C207.151 40.3729 207.032 40.8063 207.01 41.2506C206.988 41.8249 207.042 42.3991 207.032 42.9842C207.032 43.1901 206.956 43.3851 206.934 43.591C206.923 43.7644 206.88 43.9919 206.967 44.0894C207.162 44.3061 207.151 44.5554 207.151 44.7937C207.14 45.5956 207.422 46.354 207.53 47.1342C207.541 47.1884 207.573 47.2534 207.595 47.3075C207.725 47.6326 207.855 47.9577 207.974 48.2827C208.072 48.5319 208.158 48.7703 208.256 49.0195C208.321 49.1821 208.386 49.3338 208.462 49.4855C208.668 49.8755 208.884 50.2548 209.112 50.634C209.199 50.7857 209.285 50.9374 209.394 51.0674C209.556 51.2841 209.773 51.4575 209.914 51.685C210.195 52.151 210.553 52.5302 210.932 52.8986C211.171 53.1261 211.463 53.2887 211.702 53.5162C212.037 53.8304 212.33 54.188 212.688 54.4914C213.489 55.1849 214.313 55.8567 215.093 56.5826C215.765 57.2111 216.469 57.8179 217.184 58.3921C217.488 58.6305 217.683 58.9664 218.04 59.1614C218.333 59.324 218.506 59.6924 218.766 59.9308C219.351 60.4725 219.947 60.9926 220.532 61.5344C220.706 61.6861 220.836 61.8811 221.009 62.0328C221.128 62.1412 221.269 62.2062 221.41 62.2929C221.724 62.6938 222.082 63.073 222.45 63.4523C222.504 63.5064 222.591 63.5281 222.71 63.5823C222.699 63.4089 222.699 63.3006 222.678 63.1922C222.591 62.7805 222.591 62.3579 222.429 61.9461C222.223 61.3935 222.32 60.7651 222.093 60.18C221.919 59.7357 221.876 59.2373 221.8 58.7497C221.713 58.2296 221.703 57.7095 221.518 57.2002C221.378 56.8102 221.41 56.3768 221.258 55.9542C221.052 55.3799 221.02 54.7514 220.901 54.1555C220.814 53.6896 220.706 53.2345 220.597 52.7686C220.587 52.7361 220.565 52.7144 220.554 52.6927C220.402 52.1401 220.251 51.5767 220.11 51.0241C220.001 50.5798 219.904 50.1356 219.796 49.6913C219.785 49.648 219.763 49.6155 219.752 49.583C219.622 49.2037 219.481 48.8353 219.362 48.4561C219.243 48.0444 219.156 47.6109 219.048 47.1884C219.048 47.1775 219.048 47.1667 219.037 47.1559C218.907 46.8416 218.788 46.5274 218.647 46.2132C218.463 45.7798 218.3 45.3247 218.062 44.9238C217.845 44.5337 217.574 44.1545 217.271 43.8294C216.881 43.396 216.437 43.0059 216.003 42.605C215.776 42.3991 215.516 42.2149 215.266 42.0199C215.093 41.8899 214.909 41.749 214.714 41.6298C214.194 41.3264 213.663 41.023 213.121 40.7413C212.688 40.5138 212.232 40.3079 211.799 40.0912C211.647 40.0153 211.485 39.9395 211.333 39.8745C210.997 39.7336 210.661 39.5928 210.325 39.4519C210.239 39.4194 210.163 39.3544 210.076 39.311C210.163 39.2677 210.26 39.1919 210.347 39.1919C210.921 39.1702 211.496 39.1485 212.081 39.2135C212.872 39.311 213.674 39.116 214.475 39.246C215.158 39.3544 215.852 39.1268 216.556 39.3002C217.108 39.4302 217.694 39.1702 218.279 39.3652C218.69 39.5061 219.135 39.3544 219.579 39.4411C220.121 39.5494 220.706 39.4302 221.269 39.5386C221.616 39.6036 221.984 39.5061 222.331 39.5494C222.873 39.6036 223.404 39.7011 223.935 39.7878C224.021 39.7986 224.162 39.8636 224.162 39.907C224.13 40.0695 224.141 40.167 224.141 40.2646C224.13 40.3946 224.119 40.5354 224.108 40.6655C224.108 40.6655 224.108 40.6763 224.108 40.698C224.097 40.9689 224.097 41.2289 224.086 41.4998C224.097 41.4998 224.108 41.4998 224.119 41.4998C224.119 41.7382 224.13 41.944 224.13 41.9549C224.097 42.4425 224.26 42.865 224.206 43.3418C224.162 43.7752 224.151 43.7427 224.076 44.1761C224.076 44.1978 224.119 44.7612 224.119 44.7829C224.097 45.3897 224.715 46.029 224.693 46.6358C224.682 46.9175 224.91 47.0583 224.921 47.3401C224.932 47.7301 224.975 48.1202 224.997 48.5211C225.051 49.4746 225.083 50.439 225.148 51.3925C225.17 51.7067 225.127 52.0751 225.3 52.3352C225.636 52.8553 225.56 53.4404 225.766 53.9713C225.983 54.5347 226.178 55.109 226.449 55.6508C226.709 56.1817 226.99 56.7127 227.348 57.2002C227.727 57.6987 228.236 58.1213 228.626 58.6197C228.886 58.9556 229.125 59.2915 229.493 59.5407C229.667 59.6599 229.829 59.7899 230.003 59.9091C230.783 60.4725 231.53 61.0793 232.354 61.5994C233.145 62.1087 233.979 62.5638 234.835 62.9863C235.431 63.2897 236.092 63.5064 236.72 63.7665C236.818 63.8098 236.894 63.8748 236.991 63.9182C237.273 64.0374 237.587 64.1566 237.836 64.2866L239.061 64.5033C238.812 63.9507 238.378 63.3981 238.378 62.8346C238.367 62.1845 238.248 61.5236 238.357 60.8843C238.508 60.0066 238.162 59.1723 238.259 58.338C238.4 57.0377 238.053 55.8025 237.967 54.5239C237.912 53.7004 237.836 52.8661 237.576 52.0968C237.392 51.5442 237.327 50.9807 237.165 50.4281C237.067 50.1031 236.959 49.778 236.807 49.4746C236.677 49.2037 236.471 48.9545 236.309 48.6945C236.276 48.6403 236.265 48.5753 236.233 48.5211C236.059 48.2177 235.875 47.9143 235.702 47.6109C235.583 47.4051 235.474 47.1884 235.334 46.9933C235.149 46.7333 234.954 46.4841 234.738 46.2348C234.478 45.9315 234.196 45.6497 233.936 45.3572C233.557 44.9346 233.199 44.4904 232.798 44.0894C232.473 43.7644 232.094 43.4718 231.747 43.1684C231.379 42.8434 231.032 42.4966 230.674 42.1716C230.512 42.0199 230.328 41.879 230.143 41.749C229.558 41.3156 228.973 40.8713 228.388 40.4379C228.41 40.4379 228.431 40.4379 228.453 40.4488C228.876 40.4813 229.277 40.5354 229.634 40.763C229.688 40.7955 229.862 40.763 229.883 40.7088C230.013 40.3837 230.295 40.5246 230.501 40.5246C230.728 40.5246 230.956 40.6005 231.194 40.6438C231.314 40.6655 231.433 40.6763 231.541 40.698C231.877 40.7738 232.213 40.8822 232.549 40.9255C233.004 40.9905 233.459 41.023 233.914 41.0664C233.936 41.0664 233.957 41.0772 233.968 41.0772C234.326 41.1639 234.673 41.2614 235.03 41.3373C235.323 41.4023 235.626 41.4239 235.929 41.489C236.287 41.5648 236.645 41.684 237.002 41.7707C237.414 41.8682 237.836 41.9332 238.248 42.0199C238.541 42.0849 238.833 42.1607 239.126 42.2258C239.408 42.2799 239.7 42.3233 239.982 42.3775C240.188 42.4208 240.383 42.5075 240.589 42.5617C240.946 42.6483 241.293 42.7242 241.651 42.8109C241.726 42.8 241.781 42.8867 241.856 42.9192C242.138 43.0167 242.051 43.2226 241.954 43.3635C241.716 43.7102 241.445 44.0353 241.217 44.3928C240.87 44.9454 240.708 45.5631 240.48 46.1482C240.307 46.5816 240.253 47.0692 240.199 47.5351C240.123 48.1419 240.296 48.7595 240.155 49.3771C240.101 49.6263 240.318 49.9189 240.329 50.1898C240.361 50.9807 240.513 51.75 240.73 52.5085C240.805 52.7794 240.892 53.0611 241 53.3212C241.109 53.6029 241.25 53.8738 241.369 54.1555C241.466 54.383 241.553 54.6106 241.629 54.8381C241.726 55.1199 241.802 55.4016 241.9 55.6725C242.019 55.9975 242.181 56.3226 242.301 56.6476C242.409 56.9294 242.485 57.2219 242.593 57.5036C242.669 57.7095 242.745 57.9154 242.842 58.1104C242.962 58.3596 243.113 58.598 243.243 58.8472C243.319 58.9881 243.406 59.1398 243.46 59.2915C243.558 59.5624 243.623 59.8549 243.742 60.115C243.915 60.4942 244.143 60.8518 244.316 61.231C244.522 61.6969 244.695 62.1737 244.89 62.6504C244.977 62.8455 245.118 63.008 245.205 63.203C245.367 63.5281 245.53 63.8532 245.67 64.1891C245.779 64.4383 245.844 64.7092 245.963 64.9475C246.223 65.446 246.516 65.9119 246.787 66.3995C246.873 66.562 246.949 66.7354 247.036 66.8979C247.177 67.1796 247.317 67.4613 247.469 67.7322C247.512 67.8081 247.588 67.8514 247.632 67.9273C247.794 68.2523 247.946 68.5882 248.13 68.9783C248.368 68.6641 248.553 68.4365 248.726 68.1981C248.845 68.0465 248.964 67.8948 249.062 67.7322C249.235 67.4505 249.387 67.1471 249.55 66.8546C249.68 66.627 249.82 66.3995 249.918 66.1611C250.059 65.836 250.167 65.5001 250.286 65.1642C250.438 64.7633 250.59 64.3516 250.72 63.9398C250.806 63.669 250.806 63.3656 250.904 63.0947C251.045 62.6721 251.207 62.2495 251.197 61.7944C251.197 61.7511 251.207 61.7186 251.207 61.6753C251.283 61.3285 251.381 60.9818 251.446 60.6351C251.511 60.2667 251.457 59.8983 251.522 59.519C251.641 58.8364 251.543 58.1321 251.565 57.4386C251.587 56.2901 251.511 55.1307 251.229 54.0038C251.066 53.3428 250.98 52.6602 250.861 51.9884C250.861 51.9668 250.85 51.9451 250.85 51.9342C250.72 51.5984 250.59 51.2625 250.46 50.9266C250.275 50.439 250.102 49.9405 249.896 49.4638C249.723 49.0629 249.506 48.662 249.289 48.2719C249.192 48.0877 249.062 47.9252 248.954 47.7518C248.791 47.4918 248.629 47.2317 248.444 46.9825C248.26 46.7333 248.054 46.5057 247.859 46.2674C247.675 46.0506 247.426 45.8556 247.285 45.6497C247.057 45.3138 246.732 45.108 246.472 44.8262C246.321 44.6637 246.061 44.5554 246.147 44.2411C246.201 44.2303 246.266 44.1978 246.321 44.2195C246.678 44.3387 247.036 44.4687 247.393 44.6095C247.74 44.7396 248.076 44.8913 248.433 45.0213C248.661 45.108 248.91 45.1296 249.138 45.2163C249.647 45.4114 250.156 45.6389 250.666 45.8556C250.828 45.9206 251.012 45.9748 251.175 46.0398C251.511 46.1807 251.847 46.3432 252.193 46.4841C252.518 46.6249 252.843 46.7441 253.158 46.8958C253.667 47.1342 254.155 47.3942 254.664 47.6434C255.086 47.8493 255.509 48.0335 255.932 48.2286C256.343 48.4236 256.755 48.6403 257.167 48.8462C257.329 48.9329 257.492 49.0195 257.654 49.1171C257.958 49.3013 258.261 49.4963 258.565 49.6697C259.106 49.973 259.659 50.2439 260.179 50.569C260.786 50.9482 261.349 51.3925 261.967 51.75C262.617 52.1185 263.17 52.6385 263.776 53.0503C264.632 53.6354 265.358 54.383 266.138 55.0765C266.626 55.5099 267.125 55.9 267.558 56.4093C268.056 56.9944 268.728 57.417 269.151 58.0779C269.237 58.2079 269.4 58.2838 269.497 58.4138C269.768 58.728 269.996 59.0964 270.288 59.3782C270.787 59.8657 271.318 60.3317 271.87 60.7651C272.076 60.9276 272.347 61.036 272.596 61.1226C272.802 61.1985 273.03 61.2202 273.246 61.2527C273.312 61.2635 273.377 61.231 273.442 61.2093C273.539 61.1768 273.626 61.101 273.723 61.0901C273.951 61.0685 274.157 60.9926 274.319 60.8193C274.59 60.5375 274.666 59.9199 274.428 59.6165C274.167 59.3023 273.918 58.9881 273.626 58.7172C273.008 58.1538 272.38 57.612 271.74 57.0811C271.166 56.6043 270.57 56.1384 269.985 55.6725C269.627 55.3907 269.281 55.109 268.912 54.849C268.49 54.5456 268.046 54.253 267.612 53.9496C267.374 53.7871 267.146 53.5921 266.908 53.4295C266.55 53.1912 266.193 52.9853 265.835 52.7577C265.315 52.4218 264.817 52.0534 264.286 51.7392C263.831 51.4575 263.332 51.2299 262.866 50.9591C262.216 50.5798 261.577 50.1681 260.927 49.7888C260.472 49.5288 259.984 49.3338 259.529 49.0845C258.944 48.7703 258.359 48.4344 257.784 48.0877C257.741 48.0552 257.719 47.9143 257.741 47.8602C257.784 47.7735 257.914 47.7193 257.947 47.6218C258.001 47.4809 258.239 47.3834 258.066 47.1884C258.066 47.1775 258.077 47.1559 258.099 47.1233C258.164 47.145 258.218 47.1775 258.272 47.1992C258.413 46.9066 258.565 46.6358 258.695 46.354C258.89 45.9315 259.085 45.5089 259.269 45.0755C259.41 44.7396 259.572 44.3928 259.681 44.0461C259.767 43.7752 259.756 43.4827 259.854 43.2118C260.006 42.7459 260.157 42.2799 260.125 41.7707C260.125 41.7273 260.136 41.6948 260.136 41.6515C260.222 41.2397 260.32 40.828 260.374 40.4054C260.407 40.1237 260.407 39.8311 260.352 39.5603C260.298 39.311 260.504 39.0618 260.32 38.8235C260.309 38.8018 260.32 38.7693 260.331 38.7368C260.363 38.5959 260.439 38.4442 260.417 38.3034C260.331 37.7182 260.342 37.1331 260.201 36.5372C260.016 35.7895 260.038 34.9769 259.8 34.2293C259.681 33.85 259.605 33.4599 259.475 33.0807C259.291 32.5606 259.063 32.0513 258.857 31.5312C258.792 31.3687 258.716 31.217 258.64 31.0653C258.467 30.6969 258.305 30.3285 258.109 29.9818C257.936 29.6676 257.73 29.3642 257.524 29.0716C257.286 28.714 257.058 28.3673 256.798 28.0206C256.56 27.6955 256.311 27.3813 256.04 27.0779C255.704 26.6987 255.433 26.2436 254.935 26.0594C254.946 25.9835 254.978 25.8643 254.946 25.8318C254.534 25.4418 254.133 25.0625 253.699 24.705C253.255 24.3474 252.778 24.0223 252.313 23.6756C252.096 23.5131 251.901 23.318 251.673 23.1663C251.316 22.928 250.926 22.7438 250.568 22.4945C250.297 22.3103 250.254 22.2995 250.08 22.5921C250.059 22.6246 250.015 22.6354 249.994 22.6679C249.734 23.0363 249.463 23.383 249.235 23.7731C249.04 24.109 248.889 24.4774 248.715 24.8241C248.498 25.2684 248.26 25.7018 248.087 26.1569C247.946 26.547 247.87 26.9587 247.783 27.3705C247.686 27.8364 247.588 28.3131 247.512 28.7899C247.458 29.1691 247.404 29.5592 247.415 29.9384C247.458 31.8671 247.545 33.785 247.968 35.6812C247.978 35.7245 247.978 35.757 247.989 35.8004C248.119 36.2121 248.26 36.6239 248.39 37.0356C248.498 37.3823 248.585 37.7291 248.694 38.0758C248.759 38.2817 248.856 38.4876 248.954 38.6934C249.073 38.9535 249.214 39.2027 249.333 39.4627C249.506 39.8528 249.658 40.2537 249.842 40.6438C250.005 40.9689 250.221 41.2831 250.416 41.5973C250.622 41.9224 250.817 42.2583 251.023 42.5833C251.175 42.8217 251.348 43.0384 251.5 43.266C251.738 43.6235 251.933 44.0244 252.204 44.3495C252.529 44.7504 252.93 45.0971 253.277 45.4872C253.429 45.6606 253.526 45.8773 253.645 46.0723C253.613 46.1048 253.591 46.1373 253.559 46.1698C253.407 46.094 253.255 45.9965 253.093 45.964C252.659 45.8773 252.302 45.6281 251.89 45.4872C251.673 45.4114 251.435 45.368 251.218 45.2813C250.611 45.0321 250.015 44.7612 249.419 44.512C249.257 44.447 249.084 44.4037 248.921 44.3495C248.694 44.2736 248.455 44.1978 248.228 44.1219C247.827 43.9811 247.437 43.8186 247.036 43.6777C246.841 43.6127 246.581 43.6127 246.451 43.4827C246.256 43.2985 246.147 43.3743 246.006 43.526C245.931 43.4177 245.876 43.331 245.822 43.2551C245.735 43.2768 245.616 43.3201 245.595 43.2985C245.432 43.0926 245.194 43.0709 244.966 43.0276C244.674 42.9734 244.381 42.8434 244.088 42.7567C243.85 42.6808 243.612 42.6158 243.384 42.54C243.124 42.4533 242.875 42.3233 242.604 42.2799C242.268 42.2258 242.095 42.0416 242.171 41.7273C242.225 41.5215 242.279 41.3264 242.333 41.1206C242.431 40.7413 242.528 40.3621 242.615 39.9828C242.626 39.9503 242.626 39.9287 242.637 39.8962C242.723 39.5386 242.832 39.1919 242.886 38.8343C242.951 38.455 242.962 38.0758 243.027 37.6966C243.102 37.2306 243.211 36.7647 243.287 36.288C243.341 35.9087 243.384 35.5187 243.395 35.1286C243.406 34.3376 243.363 33.5358 243.406 32.734C243.471 31.6829 243.254 30.6427 243.059 29.6134C242.951 29.0824 242.853 28.5515 242.745 28.0206C242.647 27.5547 242.528 27.0996 242.42 26.6445C242.409 26.612 242.398 26.5903 242.387 26.5578C242.257 26.2111 242.116 25.8643 242.008 25.5176C241.9 25.1817 241.813 24.835 241.705 24.4991C241.64 24.3041 241.575 24.1198 241.488 23.9356C241.293 23.5672 241.087 23.1988 240.881 22.8413C240.708 22.527 240.556 22.1912 240.35 21.9094C240.004 21.4543 239.624 21.0209 239.245 20.5984C238.79 20.0999 238.281 19.6665 237.696 19.3198C237.241 19.0489 236.785 18.7563 236.33 18.4963C236.081 18.3554 235.821 18.2471 235.55 18.1496C235.323 18.0737 235.095 18.0304 234.857 17.9762C234.467 17.8787 234.087 17.792 233.697 17.7053C233.643 17.6945 233.589 17.7053 233.546 17.6945C233.231 17.597 232.928 17.4669 232.603 17.4236C232.105 17.3586 231.606 17.3152 231.108 17.3261C230.187 17.3586 229.266 17.4344 228.345 17.5211C228.215 17.5319 228.106 17.6295 227.933 17.7161C228.052 17.8028 228.128 17.8353 228.16 17.8895C228.312 18.1062 228.464 18.3229 228.594 18.5396C228.746 18.778 228.908 19.0164 229.027 19.2764C229.147 19.5473 229.212 19.8507 229.331 20.1324C229.537 20.6417 229.786 21.1293 229.97 21.6494C230.165 22.1912 230.317 22.7546 230.458 23.3072C230.566 23.6973 230.653 24.0873 230.728 24.4883C230.858 25.2467 230.967 26.0052 231.086 26.7637C231.162 27.2296 231.205 27.6955 231.335 28.1614C231.53 28.8766 231.357 29.6567 231.682 30.361C231.834 30.7078 231.715 31.1195 231.964 31.4771C232.094 31.6613 232.05 31.943 232.191 32.1814C232.43 32.5714 232.527 33.0482 232.69 33.4816C232.787 33.7417 232.906 33.98 233.015 34.2293C233.091 34.2076 233.156 34.1751 233.199 34.1642C233.188 34.3051 233.145 34.4568 233.188 34.5543C233.383 34.901 233.6 35.2261 233.817 35.562C233.99 35.8221 234.163 36.0713 234.348 36.3205C234.499 36.5264 234.651 36.7214 234.803 36.9164C235.073 37.2523 235.355 37.5882 235.615 37.9349C235.94 38.3684 236.525 38.5634 236.731 39.1052C236.742 39.1268 236.775 39.1485 236.796 39.1593C237.045 39.3761 237.295 39.6144 237.555 39.8203C238.097 40.2537 238.66 40.6871 239.202 41.1206C239.267 41.1747 239.299 41.2614 239.343 41.3264C239.245 41.3481 239.148 41.3806 239.061 41.3698C238.888 41.3373 238.714 41.2722 238.541 41.2397C238.27 41.1747 238.01 41.1314 237.739 41.0772C237.371 40.9905 237.002 40.8822 236.634 40.8063C236.352 40.7413 236.059 40.7196 235.767 40.6546C235.42 40.5788 235.095 40.4596 234.748 40.3946C234.38 40.3187 234.001 40.2862 233.622 40.232C233.578 40.2212 233.535 40.232 233.502 40.2212C233.21 40.1345 232.917 40.0153 232.614 39.9612C232.17 39.8853 231.714 39.8745 231.27 39.8311C231.227 39.8311 231.194 39.8095 231.151 39.8095C230.999 39.777 230.837 39.7228 230.685 39.7011C230.598 39.6903 230.501 39.712 230.414 39.7011C229.992 39.6144 229.58 39.5169 229.157 39.4411C229.006 39.4194 228.854 39.4627 228.702 39.4411C228.301 39.3652 227.911 39.2352 227.51 39.181C227.174 39.1377 226.839 39.1593 226.481 39.0727C225.939 38.9426 225.365 38.9643 224.802 38.9318C224.78 38.9318 224.747 38.9101 224.704 38.8776C224.715 38.7043 224.715 38.5201 224.758 38.3467C224.834 38.0325 224.942 37.7291 225.029 37.4257C225.105 37.1331 225.137 36.8406 225.213 36.5589C225.289 36.2338 225.452 35.9087 225.473 35.5837C225.517 34.9986 225.614 34.4243 225.701 33.85C225.777 33.3299 225.701 32.8098 225.777 32.2789C225.853 31.7371 225.766 31.1628 225.723 30.6102C225.668 29.9168 225.636 29.2125 225.408 28.5407C225.267 28.1181 225.213 27.6739 225.105 27.2513C225.051 27.0237 224.953 26.8179 224.877 26.5903C224.856 26.5361 224.845 26.4711 224.812 26.4278C224.693 26.2219 224.563 26.0269 224.455 25.821C224.325 25.5826 224.206 25.3334 224.065 25.095C223.902 24.8241 223.74 24.5424 223.566 24.2824C223.458 24.1199 223.35 23.9682 223.23 23.8273C222.938 23.4806 222.613 23.1663 222.353 22.7979C222.071 22.3862 221.724 22.0611 221.388 21.7036C221.15 21.4435 220.89 21.2051 220.619 20.9884C219.785 20.3166 219.037 19.5365 218.105 18.973C217.455 18.5721 216.848 18.0845 216.209 17.662C215.721 17.3369 215.201 17.0552 214.692 16.7518C214.335 16.5459 213.988 16.3401 213.63 16.1342C213.284 15.95 212.937 15.7658 212.59 15.5924C212.547 15.5707 212.482 15.6032 212.428 15.6032C212.319 16.1233 212.406 16.6326 212.352 17.131C212.243 18.1171 212.33 19.1247 212.33 20.1216C212.33 20.3491 212.352 20.5658 212.373 20.7934C212.503 22.2345 212.417 23.6864 212.807 25.1059C212.969 25.6801 212.883 26.3086 213.121 26.8937C213.284 27.3054 213.349 27.7714 213.468 28.2048C213.533 28.4432 213.609 28.6815 213.706 28.9091C213.814 29.1475 213.977 29.375 214.096 29.6025C214.27 29.9168 214.4 30.2527 214.605 30.5452C214.898 30.9678 215.245 31.3579 215.57 31.7696C215.927 32.203 216.274 32.6473 216.642 33.0699C217.119 33.6116 217.618 34.1426 218.105 34.6735C218.387 34.9769 218.636 35.3778 218.983 35.5403C219.341 35.7137 219.471 36.0821 219.839 36.2555C220.197 36.4288 220.435 36.8406 220.749 37.1223C221.063 37.4149 221.41 37.6641 221.713 37.9566C221.898 38.1408 222.255 38.2167 222.201 38.6067C222.093 38.6176 221.984 38.6284 221.887 38.6284C221.475 38.6067 221.063 38.5742 220.652 38.5417C220.175 38.5092 219.698 38.4767 219.221 38.455C218.636 38.4225 218.051 38.4659 217.455 38.3684C216.87 38.2708 216.274 38.4117 215.656 38.3142C214.909 38.195 214.14 38.3792 213.359 38.2708C212.774 38.1842 212.167 38.3142 211.572 38.325C210.748 38.3359 209.914 38.325 209.09 38.3359C208.917 38.3359 208.895 38.2492 208.895 38.1083C208.809 36.8189 208.754 35.5295 208.635 34.2509C208.516 32.9723 208.592 31.6721 208.18 30.426C208.083 30.1118 208.126 29.7542 208.05 29.44C207.931 28.9308 207.757 28.4432 207.617 27.9447C207.508 27.5547 207.422 27.1646 207.302 26.7745C207.237 26.5578 207.151 26.3519 207.064 26.1569C206.945 25.8752 206.815 25.6043 206.685 25.3334C206.587 25.1167 206.511 24.8783 206.392 24.6725C206.197 24.3149 205.97 23.979 205.764 23.6323C205.601 23.3614 205.46 23.0905 205.276 22.8413C205.049 22.527 204.789 22.2453 204.529 21.9528C204.149 21.5085 203.813 21.0318 203.38 20.6417C202.925 20.23 202.416 19.8832 201.896 19.5582C201.473 19.2981 201.007 19.1139 200.552 18.908C200.379 18.8322 200.184 18.7888 199.999 18.7455C199.718 18.6805 199.447 18.6263 199.165 18.583C198.591 18.4963 198.006 18.3338 197.442 18.3663C196.445 18.4204 195.427 18.3338 194.452 18.713C194.105 18.843 193.726 18.843 193.357 18.9622C192.826 19.1356 192.285 19.2656 191.764 19.4606C191.526 19.5473 191.255 19.5257 191.201 19.7965C191.039 19.7857 190.919 19.7315 190.833 19.764C190.562 19.8724 190.313 20.0241 190.052 20.1433C189.641 20.3275 189.207 20.49 188.806 20.6959C188.59 20.8042 188.395 20.9559 188.156 21.1185C188.449 21.216 188.676 21.2701 188.882 21.3785C189.272 21.5735 189.652 21.7902 190.031 22.007C190.421 22.2345 190.822 22.4512 191.19 22.7113C191.472 22.9063 191.721 23.1555 191.97 23.3939C192.534 23.9031 193.108 24.4232 193.661 24.9433C193.899 25.1709 194.137 25.3984 194.343 25.6476C194.603 25.951 194.842 26.2761 195.069 26.6011C195.394 27.0562 195.741 27.5113 196.034 27.9881C196.218 28.2806 196.37 28.6274 196.554 28.8766C196.846 29.2775 197.03 29.7434 197.312 30.1335C197.41 30.2743 197.496 30.4369 197.551 30.6102C197.659 30.8811 197.735 31.1737 197.843 31.4446C197.919 31.6504 198.006 31.8563 198.103 32.0622C198.201 32.268 198.331 32.4523 198.428 32.6581C198.612 33.0157 198.753 33.3949 198.959 33.7417C199.187 34.1101 199.479 34.4351 199.718 34.7927C200.032 35.2694 200.379 35.7029 200.801 36.0929C201.094 36.3638 201.484 36.548 201.679 36.9489C201.776 37.144 202.091 37.2523 202.318 37.3823C202.665 37.5882 203.022 37.7941 203.38 37.9675C203.705 38.13 204.041 38.26 204.377 38.4117C204.453 38.4442 204.518 38.4984 204.594 38.5526C204.518 38.5959 204.442 38.6718 204.355 38.6826C203.618 38.7801 202.882 38.7693 202.134 38.9643C201.267 39.1919 200.324 39.0402 199.436 39.3435C198.927 39.5169 198.363 39.4627 197.821 39.6253C197.236 39.8095 196.608 39.8311 196.001 39.9937C195.394 40.1562 194.766 40.2429 194.159 40.3621C194.127 40.3729 194.105 40.3837 194.072 40.3946C193.715 40.5138 193.357 40.633 193.011 40.763C192.913 40.7955 192.805 40.8172 192.696 40.8172C192.642 40.4813 192.534 40.4596 192.501 40.1237C192.501 40.0912 192.09 38.986 192.079 38.9643C191.949 38.5201 191.678 38.1842 191.569 37.7291C191.472 37.3173 191.494 37.3498 191.418 36.9381C191.418 36.9164 191.19 36.4288 191.19 36.4072C191.017 35.8546 190.258 35.4753 190.085 34.9119C190.009 34.6627 189.76 34.5977 189.662 34.3484C189.532 33.9909 189.359 33.655 189.218 33.3082C188.871 32.4631 188.525 31.6071 188.178 30.7619C188.059 30.4802 187.983 30.1335 187.745 29.9601C187.279 29.6025 187.159 29.0391 186.802 28.6274C186.423 28.194 186.065 27.7389 185.653 27.3271C185.252 26.9262 184.83 26.5361 184.353 26.2219C183.855 25.886 183.259 25.6693 182.76 25.3442C182.424 25.1275 182.099 24.9 181.688 24.7916C181.493 24.7375 181.308 24.6725 181.113 24.6183C180.236 24.3582 179.369 24.044 178.459 23.8381C177.592 23.6323 176.682 23.4914 175.782 23.3722C175.143 23.2855 174.482 23.2964 173.832 23.2639C173.734 23.2639 173.637 23.2205 173.539 23.2205C173.247 23.1988 172.933 23.188 172.662 23.1555L171.491 23.3505C171.892 23.7731 172.456 24.1307 172.64 24.6399C172.857 25.2251 173.171 25.7885 173.279 26.3953C173.42 27.2404 173.994 27.8797 174.179 28.6599C174.46 29.8734 175.165 30.8811 175.652 32.008C175.967 32.7231 176.292 33.4599 176.768 34.0776C177.104 34.5218 177.343 35.0094 177.668 35.4428C177.863 35.7029 178.058 35.9629 178.296 36.1905C178.502 36.3963 178.762 36.5589 178.99 36.7431C179.033 36.7864 179.065 36.8406 179.12 36.8731C179.38 37.0898 179.629 37.3065 179.889 37.5232C180.062 37.6749 180.225 37.8266 180.409 37.9675C180.658 38.1408 180.918 38.3142 181.189 38.4659C181.514 38.6501 181.861 38.8235 182.186 38.9968C182.663 39.2569 183.129 39.5386 183.616 39.7878C184.017 39.9828 184.451 40.1129 184.862 40.2862C185.296 40.4704 185.718 40.6655 186.141 40.8388C186.336 40.9255 186.553 40.9905 186.759 41.0555C187.56 41.3048 188.351 41.554 189.153 41.8032C189.305 41.8465 189.446 41.9007 189.597 41.944C189.597 41.944 189.597 41.944 189.587 41.944C189.262 42.0741 188.926 42.1499 188.59 42.2583C188.546 42.2691 188.492 42.2908 188.449 42.3124C188.07 42.4966 187.69 42.6808 187.322 42.865C187.192 42.9301 187.073 43.0167 186.943 43.0709C186.672 43.1901 186.379 43.2876 186.108 43.4285C185.773 43.6018 185.447 43.8077 185.112 43.9919C184.819 44.1545 184.505 44.3061 184.212 44.4795C183.963 44.642 183.757 44.8479 183.519 45.0213C182.977 45.4114 182.403 45.7581 181.883 46.1698C181.46 46.5057 181.092 46.9175 180.691 47.275C180.572 47.3834 180.409 47.5026 180.225 47.275C180.116 47.1342 180.051 47.0042 179.986 46.8525C179.846 46.5491 179.618 46.289 179.445 46.0073C179.239 45.6714 179.044 45.3247 178.838 44.9996C178.686 44.7504 178.502 44.5229 178.35 44.2736C178.177 43.9811 178.047 43.6669 177.852 43.396C177.635 43.0926 177.353 42.8325 177.115 42.54C176.963 42.3666 176.768 42.1933 176.692 41.9874C176.454 41.3914 175.945 41.0014 175.576 40.5138C175.176 39.972 174.666 39.5061 174.211 39.0185C174.135 38.9426 174.027 38.8885 173.94 38.8235C173.886 38.7801 173.821 38.7259 173.767 38.6826C173.648 38.5526 173.55 38.4117 173.409 38.3034C172.846 37.8374 172.293 37.3715 171.708 36.9381C171.318 36.6564 170.863 36.4505 170.451 36.1905C170.18 36.0171 169.92 35.8979 169.606 35.8221C169.216 35.7245 168.869 35.5078 168.49 35.367C168.284 35.2911 168.057 35.2586 167.84 35.2044C167.439 35.1069 167.038 35.0202 166.637 34.9336C166.594 34.9227 166.54 34.9335 166.486 34.9227C166.041 34.8469 165.586 34.7385 165.142 34.706C164.622 34.6843 164.08 34.706 163.56 34.7602C162.401 34.8902 161.22 34.771 160.093 35.1611C159.627 35.3236 159.128 35.3778 158.641 35.4753C158.554 35.497 158.467 35.5078 158.348 35.5403C158.467 35.4753 158.511 35.5403 158.565 35.6053Z" fill="black"/>
<path d="M190.931 42.1716C190.745 42.1497 191.084 42.2153 190.931 42.1716V42.1716Z" fill="black"/>
<path d="M126.394 216.47H123.089L127.647 200.173C127.9 199.312 127.976 198.705 127.875 198.35C127.799 197.996 127.546 197.818 127.115 197.818C126.558 197.818 126.052 198.11 125.596 198.692C125.14 199.274 124.659 200.275 124.152 201.693L123.659 203.098H122.937L123.887 200.325C124.444 198.73 125.153 197.679 126.014 197.173C126.875 196.666 127.698 196.413 128.483 196.413C129.496 196.413 130.129 196.704 130.382 197.286C130.661 197.844 130.737 198.527 130.61 199.338C130.484 200.148 130.319 200.946 130.116 201.731L126.394 216.47ZM136.156 197.362C135.574 197.362 134.966 197.641 134.333 198.198C133.725 198.73 133.092 199.515 132.434 200.553C131.8 201.566 131.155 202.795 130.496 204.238C129.863 205.656 129.23 207.239 128.597 208.986C127.989 210.734 127.394 212.62 126.812 214.646L127.761 209.784C128.597 207.302 129.369 205.213 130.078 203.516C130.813 201.82 131.535 200.452 132.244 199.414C132.953 198.35 133.674 197.59 134.409 197.135C135.169 196.653 135.966 196.413 136.802 196.413C137.511 196.413 138.056 196.615 138.435 197.021C138.841 197.426 139.043 197.945 139.043 198.578C139.043 199.338 138.777 199.984 138.245 200.515C137.714 201.047 137.093 201.313 136.384 201.313C135.954 201.313 135.586 201.199 135.283 200.971C135.004 200.718 134.865 200.376 134.865 199.946C134.865 199.338 135.029 198.831 135.358 198.426C135.688 198.021 136.093 197.717 136.574 197.514C136.523 197.464 136.46 197.426 136.384 197.4C136.333 197.375 136.258 197.362 136.156 197.362ZM140.42 207.847C141.838 207.366 143.117 206.897 144.257 206.441C145.422 205.96 146.346 205.454 147.03 204.922C147.942 204.187 148.663 203.301 149.195 202.263C149.727 201.224 149.993 200.085 149.993 198.844C149.993 198.11 149.942 197.641 149.841 197.438C149.74 197.236 149.588 197.135 149.385 197.135C148.6 197.135 147.739 197.565 146.802 198.426C145.865 199.262 144.979 200.401 144.143 201.845C143.307 203.263 142.611 204.833 142.054 206.555C141.522 208.277 141.256 210.012 141.256 211.759C141.256 213.051 141.496 213.988 141.978 214.57C142.459 215.128 143.092 215.406 143.877 215.406C144.789 215.406 145.751 215.128 146.764 214.57C147.777 214.013 148.765 213.026 149.727 211.607L150.335 211.911C149.854 212.747 149.22 213.557 148.435 214.342C147.65 215.128 146.764 215.773 145.776 216.28C144.814 216.761 143.788 217.002 142.699 217.002C141.155 217.002 139.926 216.558 139.015 215.672C138.128 214.76 137.685 213.418 137.685 211.645C137.685 210.556 137.888 209.341 138.293 207.999C138.698 206.631 139.268 205.276 140.002 203.934C140.762 202.567 141.661 201.313 142.699 200.173C143.738 199.034 144.89 198.122 146.156 197.438C147.422 196.755 148.777 196.413 150.221 196.413C151.006 196.413 151.664 196.628 152.196 197.059C152.753 197.464 153.032 198.084 153.032 198.92C153.032 199.933 152.728 200.883 152.12 201.769C151.538 202.63 150.753 203.428 149.765 204.162C148.803 204.871 147.752 205.504 146.612 206.061C145.472 206.619 144.358 207.1 143.269 207.505C142.18 207.91 141.218 208.239 140.382 208.493L140.42 207.847ZM155.756 215.9C155.958 216.001 156.174 216.09 156.402 216.166C156.655 216.216 157.022 216.242 157.503 216.242C158.617 216.242 159.529 215.913 160.238 215.254C160.973 214.57 161.34 213.595 161.34 212.329C161.34 211.544 161.188 210.772 160.884 210.012C160.605 209.227 160.099 208.328 159.365 207.315C158.782 206.505 158.225 205.682 157.693 204.846C157.161 203.985 156.895 202.972 156.895 201.807C156.895 200.186 157.465 198.882 158.605 197.894C159.77 196.907 161.163 196.413 162.783 196.413C163.518 196.413 164.239 196.501 164.949 196.679C165.658 196.856 166.24 197.185 166.696 197.666C167.177 198.122 167.418 198.806 167.418 199.718C167.418 200.072 167.291 200.49 167.038 200.971C166.785 201.452 166.329 201.693 165.67 201.693C165.265 201.693 164.911 201.554 164.607 201.275C164.303 200.971 164.151 200.579 164.151 200.098C164.151 199.642 164.239 199.211 164.417 198.806C164.619 198.375 164.885 197.958 165.214 197.552C164.733 197.249 164.1 197.097 163.315 197.097C162.378 197.097 161.593 197.413 160.96 198.046C160.327 198.679 160.01 199.566 160.01 200.705C160.01 201.566 160.2 202.301 160.58 202.909C160.985 203.491 161.555 204.339 162.289 205.454C162.923 206.416 163.454 207.34 163.885 208.227C164.315 209.113 164.531 210.05 164.531 211.038C164.531 212.203 164.227 213.241 163.619 214.153C163.037 215.039 162.252 215.735 161.264 216.242C160.276 216.748 159.187 217.002 157.997 217.002C157.136 217.002 156.313 216.875 155.528 216.622C154.743 216.368 154.097 215.976 153.591 215.444C153.109 214.887 152.869 214.153 152.869 213.241C152.869 212.886 152.983 212.519 153.211 212.139C153.413 211.734 153.793 211.531 154.35 211.531C154.958 211.531 155.389 211.785 155.642 212.291C155.895 212.772 156.022 213.317 156.022 213.925C156.022 214.33 155.984 214.697 155.908 215.026C155.857 215.33 155.806 215.621 155.756 215.9ZM171.173 207.847C172.591 207.366 173.87 206.897 175.01 206.441C176.175 205.96 177.099 205.454 177.783 204.922C178.694 204.187 179.416 203.301 179.948 202.263C180.48 201.224 180.746 200.085 180.746 198.844C180.746 198.11 180.695 197.641 180.594 197.438C180.492 197.236 180.34 197.135 180.138 197.135C179.353 197.135 178.492 197.565 177.555 198.426C176.618 199.262 175.731 200.401 174.896 201.845C174.06 203.263 173.364 204.833 172.806 206.555C172.275 208.277 172.009 210.012 172.009 211.759C172.009 213.051 172.249 213.988 172.73 214.57C173.212 215.128 173.845 215.406 174.63 215.406C175.541 215.406 176.504 215.128 177.517 214.57C178.53 214.013 179.517 213.026 180.48 211.607L181.088 211.911C180.606 212.747 179.973 213.557 179.188 214.342C178.403 215.128 177.517 215.773 176.529 216.28C175.567 216.761 174.541 217.002 173.452 217.002C171.907 217.002 170.679 216.558 169.768 215.672C168.881 214.76 168.438 213.418 168.438 211.645C168.438 210.556 168.641 209.341 169.046 207.999C169.451 206.631 170.021 205.276 170.755 203.934C171.515 202.567 172.414 201.313 173.452 200.173C174.491 199.034 175.643 198.122 176.909 197.438C178.175 196.755 179.53 196.413 180.974 196.413C181.759 196.413 182.417 196.628 182.949 197.059C183.506 197.464 183.785 198.084 183.785 198.92C183.785 199.933 183.481 200.883 182.873 201.769C182.29 202.63 181.505 203.428 180.518 204.162C179.555 204.871 178.504 205.504 177.365 206.061C176.225 206.619 175.111 207.1 174.022 207.505C172.933 207.91 171.971 208.239 171.135 208.493L171.173 207.847ZM188.864 216.47H185.559L190.117 200.173C190.371 199.312 190.447 198.705 190.345 198.35C190.269 197.996 190.016 197.818 189.586 197.818C189.028 197.818 188.522 198.11 188.066 198.692C187.61 199.274 187.129 200.275 186.623 201.693L186.129 203.098H185.407L186.357 200.325C186.914 198.73 187.623 197.679 188.484 197.173C189.345 196.666 190.168 196.413 190.953 196.413C191.966 196.413 192.599 196.704 192.852 197.286C193.131 197.844 193.207 198.527 193.08 199.338C192.954 200.148 192.789 200.946 192.586 201.731L188.864 216.47ZM198.626 197.362C198.044 197.362 197.436 197.641 196.803 198.198C196.195 198.73 195.562 199.515 194.904 200.553C194.271 201.566 193.625 202.795 192.966 204.238C192.333 205.656 191.7 207.239 191.067 208.986C190.459 210.734 189.864 212.62 189.282 214.646L190.231 209.784C191.067 207.302 191.839 205.213 192.548 203.516C193.283 201.82 194.005 200.452 194.714 199.414C195.423 198.35 196.145 197.59 196.879 197.135C197.639 196.653 198.436 196.413 199.272 196.413C199.981 196.413 200.526 196.615 200.906 197.021C201.311 197.426 201.513 197.945 201.513 198.578C201.513 199.338 201.247 199.984 200.716 200.515C200.184 201.047 199.563 201.313 198.854 201.313C198.424 201.313 198.057 201.199 197.753 200.971C197.474 200.718 197.335 200.376 197.335 199.946C197.335 199.338 197.499 198.831 197.829 198.426C198.158 198.021 198.563 197.717 199.044 197.514C198.994 197.464 198.93 197.426 198.854 197.4C198.804 197.375 198.728 197.362 198.626 197.362ZM218.447 202.073C217.738 201.718 217.08 201.199 216.472 200.515C215.864 199.832 215.598 198.983 215.674 197.97C215.725 197.388 215.927 196.983 216.282 196.755C216.662 196.501 217.016 196.375 217.345 196.375C218.232 196.375 218.84 196.881 219.169 197.894C219.498 198.882 219.574 200.161 219.397 201.731C219.219 203.225 218.916 204.707 218.485 206.175C218.055 207.644 217.497 209.024 216.814 210.316C216.155 211.607 215.357 212.76 214.42 213.773C213.483 214.786 212.433 215.583 211.268 216.166C210.103 216.723 208.811 217.002 207.393 217.002C206.253 217.002 205.354 216.774 204.696 216.318C204.063 215.837 203.62 215.241 203.366 214.532C203.113 213.798 203.012 213.051 203.062 212.291C203.164 210.873 203.594 209.354 204.354 207.733C205.139 206.087 206.165 204.428 207.431 202.757C208.722 201.06 210.204 199.426 211.875 197.856C211.47 198.008 211.04 198.223 210.584 198.502C210.128 198.755 209.685 199.021 209.254 199.3C208.824 199.553 208.406 199.781 208.001 199.984C207.596 200.161 207.216 200.249 206.861 200.249C206.38 200.249 205.962 200.098 205.608 199.794C205.278 199.464 204.898 199.3 204.468 199.3C204.063 199.3 203.721 199.477 203.442 199.832C203.189 200.161 202.911 200.769 202.607 201.655L202.189 203.06H201.467L202.303 200.287C202.733 198.768 203.265 197.742 203.898 197.211C204.557 196.679 205.215 196.413 205.873 196.413C206.355 196.413 206.76 196.539 207.089 196.793C207.418 197.046 207.747 197.299 208.077 197.552C208.431 197.78 208.849 197.894 209.33 197.894C209.938 197.894 210.508 197.806 211.04 197.628C211.597 197.426 212.091 197.122 212.521 196.717L212.901 195.995L213.699 196.375C212.357 198.021 211.204 199.68 210.242 201.351C209.28 203.022 208.507 204.707 207.925 206.403C207.368 208.1 207.013 209.847 206.861 211.645C206.76 213.114 206.861 214.165 207.165 214.798C207.494 215.431 207.937 215.748 208.495 215.748C209.685 215.748 210.786 215.431 211.799 214.798C212.812 214.165 213.711 213.33 214.496 212.291C215.307 211.253 215.991 210.126 216.548 208.91C217.13 207.669 217.573 206.454 217.877 205.264C218.206 204.073 218.396 203.01 218.447 202.073ZM225.71 215.786C226.318 215.786 227.014 215.406 227.799 214.646C228.585 213.861 229.382 212.81 230.193 211.493C231.003 210.177 231.75 208.682 232.434 207.011C233.118 205.34 233.662 203.605 234.067 201.807L233.421 205.909C231.978 209.961 230.522 212.823 229.053 214.494C227.61 216.166 226.128 217.002 224.609 217.002C223.418 217.002 222.519 216.571 221.912 215.71C221.329 214.849 221.038 213.747 221.038 212.405C221.038 211.19 221.24 209.873 221.646 208.455C222.051 207.011 222.608 205.58 223.317 204.162C224.051 202.744 224.887 201.452 225.824 200.287C226.761 199.123 227.774 198.186 228.863 197.476C229.977 196.767 231.104 196.413 232.244 196.413C233.13 196.413 233.801 196.856 234.257 197.742C234.738 198.603 234.84 199.819 234.561 201.389L234.143 201.617C234.32 200.275 234.232 199.198 233.877 198.388C233.523 197.552 232.94 197.135 232.13 197.135C231.294 197.135 230.421 197.628 229.509 198.616C228.623 199.604 227.787 200.895 227.002 202.491C226.217 204.061 225.584 205.77 225.102 207.619C224.621 209.442 224.381 211.19 224.381 212.861C224.381 213.95 224.495 214.71 224.723 215.14C224.976 215.571 225.305 215.786 225.71 215.786ZM235.283 196.945C235.891 196.919 236.498 196.869 237.106 196.793C237.714 196.717 238.271 196.59 238.778 196.413L234.029 213.203C233.979 213.431 233.903 213.735 233.801 214.115C233.725 214.469 233.725 214.798 233.801 215.102C233.903 215.406 234.169 215.558 234.599 215.558C235.106 215.558 235.599 215.279 236.081 214.722C236.562 214.165 237.043 213.152 237.524 211.683L237.98 210.278H238.702L237.752 213.051C237.195 214.57 236.511 215.609 235.701 216.166C234.89 216.723 234.118 217.002 233.383 217.002C232.396 217.002 231.699 216.672 231.294 216.014C230.965 215.431 230.876 214.76 231.028 214.001C231.18 213.216 231.358 212.43 231.56 211.645L235.283 196.945ZM254.062 213.241C253.86 213.975 253.796 214.558 253.872 214.988C253.948 215.393 254.227 215.596 254.708 215.596C255.214 215.596 255.683 215.317 256.113 214.76C256.569 214.178 257.05 213.165 257.557 211.721L258.051 210.316H258.772L257.823 213.089C257.494 214.051 257.088 214.824 256.607 215.406C256.151 215.963 255.645 216.368 255.088 216.622C254.531 216.875 253.923 217.002 253.264 217.002C252.175 217.002 251.441 216.736 251.061 216.204C250.707 215.647 250.58 214.963 250.681 214.153C250.783 213.317 250.947 212.494 251.175 211.683L257.367 191.133C257.62 190.272 257.595 189.639 257.291 189.233C256.987 188.828 256.215 188.626 254.974 188.626L255.24 187.828C256.633 187.803 257.861 187.663 258.924 187.41C259.988 187.131 261.014 186.752 262.001 186.27L254.062 213.241ZM263.914 207.847C265.332 207.366 266.611 206.897 267.75 206.441C268.915 205.96 269.84 205.454 270.523 204.922C271.435 204.187 272.157 203.301 272.689 202.263C273.22 201.224 273.486 200.085 273.486 198.844C273.486 198.11 273.436 197.641 273.334 197.438C273.233 197.236 273.081 197.135 272.879 197.135C272.094 197.135 271.232 197.565 270.295 198.426C269.358 199.262 268.472 200.401 267.636 201.845C266.801 203.263 266.104 204.833 265.547 206.555C265.015 208.277 264.749 210.012 264.749 211.759C264.749 213.051 264.99 213.988 265.471 214.57C265.952 215.128 266.585 215.406 267.371 215.406C268.282 215.406 269.245 215.128 270.257 214.57C271.27 214.013 272.258 213.026 273.22 211.607L273.828 211.911C273.347 212.747 272.714 213.557 271.929 214.342C271.144 215.128 270.257 215.773 269.27 216.28C268.308 216.761 267.282 217.002 266.193 217.002C264.648 217.002 263.42 216.558 262.508 215.672C261.622 214.76 261.179 213.418 261.179 211.645C261.179 210.556 261.381 209.341 261.786 207.999C262.192 206.631 262.761 205.276 263.496 203.934C264.256 202.567 265.155 201.313 266.193 200.173C267.231 199.034 268.383 198.122 269.65 197.438C270.916 196.755 272.271 196.413 273.714 196.413C274.499 196.413 275.158 196.628 275.69 197.059C276.247 197.464 276.525 198.084 276.525 198.92C276.525 199.933 276.221 200.883 275.614 201.769C275.031 202.63 274.246 203.428 273.258 204.162C272.296 204.871 271.245 205.504 270.106 206.061C268.966 206.619 267.852 207.1 266.763 207.505C265.674 207.91 264.711 208.239 263.876 208.493L263.914 207.847ZM280.883 213.241C280.68 213.975 280.617 214.558 280.693 214.988C280.769 215.393 281.047 215.596 281.529 215.596C282.035 215.596 282.504 215.317 282.934 214.76C283.39 214.178 283.871 213.165 284.378 211.721L284.871 210.316H285.593L284.643 213.089C284.314 214.051 283.909 214.824 283.428 215.406C282.972 215.963 282.466 216.368 281.908 216.622C281.351 216.875 280.743 217.002 280.085 217.002C278.996 217.002 278.262 216.736 277.882 216.204C277.527 215.647 277.401 214.963 277.502 214.153C277.603 213.317 277.768 212.494 277.996 211.683L284.188 191.133C284.441 190.272 284.416 189.639 284.112 189.233C283.808 188.828 283.035 188.626 281.794 188.626L282.06 187.828C283.453 187.803 284.681 187.663 285.745 187.41C286.809 187.131 287.834 186.752 288.822 186.27L280.883 213.241ZM299.091 197.173C298.281 197.173 297.496 197.502 296.736 198.16C296.002 198.793 295.318 199.667 294.685 200.781C294.077 201.87 293.533 203.098 293.052 204.466C292.596 205.833 292.241 207.252 291.988 208.72C291.735 210.189 291.608 211.595 291.608 212.937C291.608 214.077 291.785 214.912 292.14 215.444C292.52 215.976 293.064 216.242 293.773 216.242C294.584 216.242 295.356 215.925 296.09 215.292C296.85 214.634 297.547 213.76 298.18 212.671C298.813 211.557 299.357 210.316 299.813 208.948C300.269 207.581 300.624 206.175 300.877 204.732C301.13 203.263 301.257 201.845 301.257 200.477C301.257 199.312 301.079 198.477 300.725 197.97C300.37 197.438 299.826 197.173 299.091 197.173ZM288.341 211.038C288.341 209.645 288.582 208.113 289.063 206.441C289.544 204.745 290.241 203.136 291.152 201.617C292.089 200.098 293.241 198.857 294.609 197.894C295.976 196.907 297.547 196.413 299.319 196.413C300.889 196.413 302.143 196.907 303.08 197.894C304.042 198.857 304.523 200.351 304.523 202.377C304.523 203.77 304.283 205.314 303.802 207.011C303.321 208.682 302.611 210.278 301.674 211.797C300.763 213.317 299.623 214.57 298.256 215.558C296.888 216.52 295.318 217.002 293.545 217.002C291.975 217.002 290.709 216.508 289.747 215.52C288.81 214.532 288.341 213.038 288.341 211.038ZM313.271 190.031C313.398 189.373 313.727 188.803 314.259 188.322C314.816 187.84 315.411 187.6 316.044 187.6C316.703 187.6 317.209 187.84 317.564 188.322C317.943 188.803 318.07 189.373 317.943 190.031C317.817 190.689 317.475 191.259 316.918 191.74C316.386 192.222 315.791 192.462 315.132 192.462C314.499 192.462 313.993 192.222 313.613 191.74C313.258 191.259 313.144 190.689 313.271 190.031ZM312.093 200.173C312.625 198.603 312.448 197.818 311.562 197.818C310.979 197.818 310.46 198.135 310.004 198.768C309.548 199.401 309.067 200.376 308.561 201.693L308.029 203.098H307.307L308.295 200.325C308.877 198.73 309.612 197.679 310.498 197.173C311.384 196.666 312.22 196.413 313.005 196.413C314.094 196.413 314.803 196.691 315.132 197.249C315.487 197.806 315.601 198.502 315.474 199.338C315.373 200.148 315.183 200.946 314.905 201.731L310.84 213.241C310.587 213.975 310.498 214.558 310.574 214.988C310.675 215.393 310.967 215.596 311.448 215.596C311.954 215.596 312.435 215.317 312.891 214.76C313.347 214.203 313.854 213.19 314.411 211.721L314.942 210.316H315.664L314.677 213.089C314.145 214.558 313.448 215.583 312.587 216.166C311.752 216.723 310.891 217.002 310.004 217.002C308.915 217.002 308.181 216.748 307.801 216.242C307.421 215.735 307.282 215.077 307.383 214.267C307.484 213.456 307.7 212.595 308.029 211.683L312.093 200.173ZM322.151 216.47H318.846L323.404 200.173C323.658 199.312 323.734 198.705 323.632 198.35C323.556 197.996 323.303 197.818 322.872 197.818C322.315 197.818 321.809 198.11 321.353 198.692C320.897 199.274 320.416 200.275 319.91 201.693L319.416 203.098H318.694L319.644 200.325C320.201 198.73 320.91 197.679 321.771 197.173C322.632 196.666 323.455 196.413 324.24 196.413C325.253 196.413 325.886 196.704 326.139 197.286C326.418 197.844 326.494 198.527 326.367 199.338C326.241 200.148 326.076 200.946 325.873 201.731L322.151 216.47ZM331.913 197.362C331.331 197.362 330.723 197.641 330.09 198.198C329.482 198.73 328.849 199.515 328.191 200.553C327.558 201.566 326.912 202.795 326.253 204.238C325.62 205.656 324.987 207.239 324.354 208.986C323.746 210.734 323.151 212.62 322.569 214.646L323.518 209.784C324.354 207.302 325.126 205.213 325.835 203.516C326.57 201.82 327.292 200.452 328.001 199.414C328.71 198.35 329.432 197.59 330.166 197.135C330.926 196.653 331.723 196.413 332.559 196.413C333.268 196.413 333.813 196.615 334.192 197.021C334.598 197.426 334.8 197.945 334.8 198.578C334.8 199.338 334.534 199.984 334.003 200.515C333.471 201.047 332.85 201.313 332.141 201.313C331.711 201.313 331.344 201.199 331.04 200.971C330.761 200.718 330.622 200.376 330.622 199.946C330.622 199.338 330.786 198.831 331.116 198.426C331.445 198.021 331.85 197.717 332.331 197.514C332.281 197.464 332.217 197.426 332.141 197.4C332.091 197.375 332.015 197.362 331.913 197.362Z" fill="black"/>
</g>
<defs>
<clipPath id="clip0_101_122">
<rect width="434" height="239.007" fill="white"/>
</clipPath>
</defs>
</svg>
