<svg width="141" height="78" viewBox="0 0 141 78" fill="none" xmlns="http://www.w3.org/2000/svg">
<g clip-path="url(#clip0_238_2)">
<path d="M130.928 53.1699C130.83 53.1876 130.731 53.2159 130.633 53.2159C129.637 53.2194 128.644 53.2088 127.648 53.2194C127.408 53.2229 127.274 53.1239 127.158 52.9294C126.602 51.9959 126.035 51.0694 125.476 50.1394C123.972 47.65 122.473 45.1641 120.97 42.6747C119.217 39.7715 117.464 36.8719 115.71 33.9687C115.637 33.8485 115.594 33.6964 115.415 33.6222C115.401 33.7318 115.376 33.8273 115.372 33.9227C115.369 34.4956 115.369 35.0684 115.369 35.6413C115.369 41.2708 115.369 46.9003 115.369 52.5299C115.369 52.7314 115.401 52.9401 115.323 53.1593C115.26 53.177 115.193 53.2088 115.126 53.2088C114.408 53.2123 113.693 53.2159 112.975 53.2123C112.891 53.2123 112.806 53.184 112.739 53.1699C112.648 53.0143 112.672 52.8658 112.672 52.7208C112.669 52.1197 112.672 51.515 112.672 50.9139C112.672 44.2093 112.672 37.5084 112.672 30.8039C112.672 30.6129 112.672 30.422 112.683 30.231C112.687 30.1603 112.715 30.0931 112.729 30.0365C113.07 29.9658 115.559 29.9446 116.277 30.0047C116.334 30.0825 116.407 30.1744 116.467 30.2699C117.097 31.3131 117.728 32.3562 118.354 33.3994C119.593 35.461 120.832 37.5261 122.072 39.5912C123.522 42.0063 124.976 44.4215 126.43 46.8367C126.922 47.6535 127.412 48.4739 127.905 49.2872C127.971 49.3969 128.049 49.4994 128.151 49.6444C128.193 49.5595 128.232 49.5171 128.235 49.4711C128.246 49.3261 128.243 49.1776 128.243 49.0291C128.243 42.8833 128.243 36.741 128.243 30.5952C128.243 30.4078 128.214 30.2133 128.285 30.0118C128.57 29.9375 128.862 29.9835 129.151 29.9764C129.443 29.9693 129.735 29.9729 130.027 29.9764C130.316 29.9799 130.608 29.9587 130.921 30.0012C130.936 30.1002 130.957 30.1815 130.96 30.2664C130.967 30.3689 130.964 30.4715 130.964 30.574C130.964 37.908 130.964 45.2419 130.964 52.5794C130.964 52.7703 130.985 52.9613 130.928 53.1699Z" fill="white"/>
<path d="M34.6043 41.783C34.6149 43.1763 34.4142 44.7003 33.9179 46.1749C32.8899 49.2231 30.9573 51.4685 28.032 52.8299C26.8668 53.3709 25.6453 53.6998 24.378 53.8837C23.3149 54.0357 22.2518 54.0782 21.1816 54.0145C19.2455 53.8978 17.3938 53.4629 15.6759 52.5293C13.0357 51.0972 11.3003 48.9189 10.3815 46.0618C9.96961 44.7781 9.77248 43.4627 9.73023 42.119C9.67391 40.3863 9.87808 38.6889 10.4167 37.0375C10.9236 35.4781 11.7157 34.0813 12.8281 32.8791C14.2045 31.3903 15.8836 30.3825 17.8127 29.792C19.337 29.3217 20.9 29.1378 22.4911 29.1732C24.0048 29.2085 25.4904 29.4313 26.9266 29.9299C28.8628 30.6018 30.5173 31.6909 31.8444 33.2716C32.7421 34.3395 33.3969 35.5453 33.8545 36.8607C34.3896 38.399 34.6078 39.9938 34.6043 41.783ZM21.7061 51.617C23.0438 51.6241 23.9591 51.5215 24.8603 51.3058C26.4725 50.9133 27.8982 50.1707 29.0881 48.9967C30.197 47.9005 30.9432 46.5851 31.3868 45.0929C31.8867 43.4203 31.9747 41.7123 31.7705 39.9867C31.6262 38.749 31.2882 37.568 30.7144 36.4612C29.6795 34.4526 28.1024 33.0559 26.0008 32.2602C24.9095 31.8465 23.776 31.6449 22.6108 31.6096C21.2837 31.5672 19.9812 31.7015 18.7139 32.1117C17.1896 32.6032 15.8766 33.4307 14.8135 34.6365C13.782 35.8034 13.1273 37.1719 12.7612 38.6818C12.4479 39.9902 12.3528 41.3198 12.4619 42.6635C12.5535 43.8022 12.7788 44.9054 13.2082 45.9592C14.2256 48.4557 15.9998 50.1566 18.5379 51.0442C19.6996 51.4437 20.8965 51.6135 21.7061 51.617Z" fill="white"/>
<path d="M62.9209 45.9276C63.7974 45.719 64.6493 45.6023 65.4907 45.4361C65.628 45.5882 65.6033 45.7579 65.6244 45.9135C65.804 47.2042 66.332 48.3322 67.205 49.294C68.0323 50.2028 69.0532 50.8252 70.2184 51.2C71.7884 51.7021 73.3796 51.7516 74.9848 51.3768C75.6888 51.2106 76.3506 50.9348 76.9456 50.5211C78.0474 49.7573 78.6951 48.7176 78.7831 47.3633C78.8535 46.253 78.4839 45.3159 77.6074 44.6016C77.0899 44.1773 76.502 43.8873 75.886 43.6468C75.189 43.3746 74.4673 43.1836 73.7386 43.0174C72.4256 42.7168 71.1125 42.4233 69.8065 42.1086C68.9088 41.8929 68.0393 41.5817 67.2156 41.1574C66.4517 40.7614 65.7758 40.2557 65.2337 39.5803C64.7162 38.9367 64.3924 38.1941 64.2692 37.3843C64.0122 35.6729 64.2762 34.0427 65.1809 32.5505C65.9377 31.3022 67.0255 30.4394 68.3526 29.8701C69.0285 29.5801 69.7361 29.3927 70.4613 29.2831C71.6159 29.1098 72.767 29.1204 73.9111 29.3609C75.8754 29.7746 77.5053 30.74 78.7163 32.3701C79.3569 33.2294 79.7723 34.1948 80.0223 35.2379C80.0575 35.3794 80.068 35.5243 80.0891 35.6799C79.8181 35.8355 79.5224 35.8567 79.2478 35.9381C78.9803 36.0159 78.7092 36.0795 78.4381 36.1432C78.1565 36.2068 77.882 36.3164 77.5862 36.327C77.463 36.129 77.4666 35.9169 77.4208 35.7224C77.2166 34.8454 76.8329 34.0639 76.238 33.3921C75.5058 32.5611 74.594 32.0236 73.5239 31.7796C72.1475 31.4649 70.7887 31.5462 69.4756 32.0908C68.497 32.4974 67.726 33.1551 67.2614 34.1311C66.8354 35.0293 66.758 35.9664 67.0396 36.9211C67.191 37.4409 67.4937 37.8688 67.8985 38.2259C68.3104 38.5902 68.7856 38.8483 69.289 39.0534C69.9403 39.3221 70.6197 39.4954 71.3061 39.651C72.7318 39.9799 74.1611 40.2981 75.5832 40.6411C76.5372 40.8745 77.4595 41.221 78.3255 41.6914C79.0366 42.0768 79.6808 42.5577 80.2194 43.1765C80.9586 44.0252 81.374 45.0047 81.4585 46.1292C81.55 47.3067 81.4022 48.4454 80.9305 49.5345C80.2757 51.0515 79.1844 52.1583 77.7447 52.9363C76.9104 53.3853 76.0268 53.6788 75.0974 53.8486C73.2704 54.1845 71.454 54.1102 69.6657 53.6081C67.9689 53.1307 66.4799 52.2856 65.2548 51.002C64.0016 49.6901 63.2412 48.1307 62.9491 46.3378C62.9315 46.2141 62.9315 46.0974 62.9209 45.9276Z" fill="white"/>
<path d="M91.6428 50.7791C92.4067 50.7897 93.1495 50.7826 93.8958 50.7826C94.628 50.7826 95.3602 50.7826 96.0889 50.7826C96.8352 50.7826 97.5815 50.7826 98.3277 50.7826C99.074 50.7826 99.8203 50.7826 100.567 50.7826C101.299 50.7826 102.031 50.7826 102.76 50.7826C103.503 50.7826 104.249 50.7791 104.967 50.7861C105.009 50.8427 105.041 50.8639 105.044 50.8852C105.094 51.6313 105.055 52.3809 105.069 53.1447C104.967 53.1695 104.886 53.2049 104.805 53.2084C104.573 53.219 104.337 53.2155 104.104 53.2155C99.3064 53.2155 94.5048 53.2155 89.7067 53.2155C89.4743 53.2155 89.242 53.2332 88.9956 53.1836C88.9745 53.0882 88.9533 53.0033 88.9463 52.922C88.9392 52.8194 88.9428 52.7169 88.9428 52.6143C88.9428 45.2804 88.9428 37.9465 88.9428 30.6125C88.9428 30.4251 88.9146 30.2306 88.9885 30.022C89.0695 30.0078 89.1505 29.9866 89.2349 29.9831C89.411 29.976 89.587 29.9796 89.763 29.9796C94.5611 29.9796 99.3627 29.9796 104.161 29.9796C104.333 29.9796 104.509 29.9548 104.696 30.022C104.71 30.0962 104.731 30.167 104.738 30.2377C104.77 30.7575 104.745 32.0623 104.699 32.37C104.625 32.3841 104.544 32.4124 104.46 32.4195C104.316 32.4266 104.168 32.423 104.02 32.423C100.056 32.423 96.0889 32.423 92.1251 32.423C91.9667 32.423 91.8082 32.4301 91.6674 32.4336C91.5442 32.6281 91.583 32.8085 91.583 32.9817C91.5794 34.4209 91.583 35.8637 91.5794 37.3029C91.5794 38.0384 91.5759 38.7739 91.5794 39.5059C91.5794 39.665 91.5477 39.8312 91.6322 39.9868C91.7766 40.0787 91.942 40.0398 92.1004 40.0398C93.3431 40.0434 94.5892 40.0398 95.8319 40.0398C98.1729 40.0398 100.514 40.0398 102.855 40.0434C103.027 40.0434 103.203 40.0116 103.365 40.0894C103.439 40.4465 103.439 41.9564 103.365 42.3525C103.291 42.3666 103.207 42.3878 103.126 42.3914C102.982 42.3984 102.834 42.3949 102.686 42.3949C99.1585 42.3949 95.6348 42.3949 92.1075 42.3949C91.9631 42.3949 91.8188 42.402 91.6534 42.4091C91.6252 42.5045 91.5865 42.5823 91.5865 42.6637C91.5759 42.897 91.5794 43.134 91.5794 43.3673C91.5794 45.6446 91.5794 47.9219 91.583 50.2027C91.5724 50.376 91.5513 50.5528 91.6428 50.7791Z" fill="white"/>
<path d="M57.0386 50.7823C57.1125 51.1606 57.1266 52.6105 57.0703 53.1479C56.9999 53.1692 56.9189 53.201 56.8379 53.2116C56.7218 53.2222 56.6056 53.2151 56.4859 53.2151C52.0363 53.2151 47.5902 53.2151 43.1406 53.2151C42.9541 53.2151 42.7605 53.2434 42.5704 53.1656C42.5563 53.102 42.5352 53.0489 42.5352 52.9924C42.5352 45.3791 42.5352 37.7658 42.5387 30.1525C42.5387 30.1136 42.5668 30.0712 42.588 30.011C42.6548 30.0004 42.7217 29.9828 42.7921 29.9792C43.5807 29.9757 44.3692 29.9757 45.1753 29.9792C45.2 30.0888 45.2281 30.1666 45.2352 30.2515C45.2457 30.3823 45.2387 30.5167 45.2387 30.6475C45.2387 37.1434 45.2387 43.6393 45.2387 50.1352C45.2387 50.3226 45.2457 50.5135 45.2493 50.7186C45.3549 50.7434 45.4358 50.7717 45.5203 50.7752C45.6506 50.7858 45.7843 50.7787 45.9146 50.7787C49.4278 50.7787 52.9375 50.7787 56.4507 50.7787C56.6443 50.7823 56.8344 50.7823 57.0386 50.7823Z" fill="white"/>
<path d="M51.5152 11.6196C51.568 11.6868 51.6208 11.754 51.6736 11.8212C51.7264 11.8884 51.7687 11.9591 51.825 12.0227C51.8919 12.1041 51.9658 12.1748 52.0362 12.2526C52.1559 12.3799 52.2756 12.5072 52.3882 12.638C52.515 12.7795 52.6276 12.935 52.7614 13.073C52.9198 13.2392 53.0888 13.3947 53.2578 13.5539C53.4091 13.6953 53.5675 13.8297 53.7224 13.9676C53.8668 14.0949 54.0111 14.2257 54.166 14.3389C54.2927 14.4344 54.4335 14.5086 54.5673 14.59C54.6658 14.6465 54.7609 14.7066 54.8665 14.7491C54.9721 14.7951 55.0848 14.8304 55.1939 14.8658C55.2573 14.887 55.3206 14.9011 55.384 14.9224C55.5283 14.9683 55.6691 15.0249 55.8135 15.0673C55.9015 15.0956 55.9965 15.1027 56.0845 15.1274C56.176 15.1522 56.2605 15.1946 56.3521 15.2123C56.514 15.2477 56.6794 15.276 56.8414 15.3043C57.0139 15.3325 57.1863 15.3608 57.3588 15.3856C57.5736 15.4174 57.7918 15.4492 58.0066 15.474C58.1439 15.4917 58.2847 15.4987 58.422 15.5129C58.4466 15.5164 58.4677 15.5306 58.4888 15.5412C58.4783 15.5624 58.4712 15.5836 58.4572 15.6048C58.2811 15.8453 58.0382 16.0292 57.901 16.305C57.813 16.4853 57.6862 16.6444 57.5771 16.8177C57.5349 16.8814 57.5032 16.9521 57.4715 17.0228C57.4292 17.1183 57.387 17.2173 57.3483 17.3163C57.3342 17.3517 57.3272 17.387 57.3131 17.4224C57.2744 17.5249 57.2638 17.6558 57.1934 17.723C57.1371 17.776 57.0631 17.8326 56.9963 17.8856C56.9751 17.9033 56.9575 17.9281 56.9329 17.9457C56.785 18.0624 56.6266 18.165 56.4858 18.2923C56.2887 18.4726 56.0951 18.66 55.9191 18.8581C55.736 19.0667 55.5741 19.293 55.4016 19.5087C55.3629 19.5547 55.3277 19.6042 55.2889 19.6502C55.208 19.7492 55.1622 19.8623 55.1129 19.979C55.0425 20.1523 54.9299 20.3114 54.8595 20.4847C54.7926 20.6509 54.7468 20.8312 54.7081 21.008C54.6694 21.1884 54.6482 21.3758 54.6236 21.5597C54.599 21.7329 54.6518 21.9097 54.5919 22.0866C54.5638 22.175 54.5919 22.2846 54.606 22.3836C54.6447 22.6806 54.687 22.9741 54.7257 23.2712C54.7433 23.3914 54.7503 23.5152 54.7715 23.6354C54.7855 23.7202 54.8137 23.8016 54.8313 23.8864C54.87 24.0703 54.9052 24.2542 54.944 24.4416C54.944 24.4487 54.9475 24.4558 54.9475 24.4593C54.9897 24.5866 55.039 24.7139 55.0742 24.8447C55.1129 24.9897 55.1446 25.1382 55.1798 25.2832C55.1833 25.2938 55.1868 25.3009 55.1904 25.3115C55.2326 25.4105 55.2819 25.5095 55.3171 25.6121C55.3593 25.7288 55.3875 25.849 55.4262 25.9657C55.4509 26.0364 55.4861 26.1036 55.5213 26.1885C55.56 26.1496 55.5987 26.1213 55.6304 26.0824C55.743 25.9409 55.8522 25.7924 55.9648 25.6474C56.1197 25.4459 56.2711 25.2479 56.4225 25.0463C56.4612 24.9933 56.5034 24.9402 56.5386 24.8872C56.6161 24.7669 56.6865 24.6432 56.7639 24.523C56.8378 24.4063 56.9223 24.3002 56.9857 24.1799C57.0667 24.0314 57.1371 23.8758 57.211 23.7273C57.2638 23.6212 57.3201 23.5187 57.3729 23.4126C57.4152 23.3242 57.4504 23.2358 57.4856 23.1474C57.5102 23.0802 57.5278 23.0095 57.5454 22.9388C57.5736 22.8362 57.6053 22.7337 57.6334 22.6311C57.6405 22.6134 57.6369 22.5922 57.644 22.571C57.6721 22.4826 57.7109 22.3942 57.732 22.3023C57.7531 22.1997 57.7637 22.0936 57.7707 21.9911C57.7848 21.8143 57.7707 21.6375 57.7883 21.4607C57.813 21.2096 57.7848 20.9515 57.7566 20.6969C57.7109 20.3043 57.732 19.9048 57.6264 19.5193C57.556 19.2683 57.6017 18.996 57.5137 18.7343C57.4504 18.5469 57.4468 18.3383 57.4116 18.1367C57.3835 17.9634 57.4644 17.7725 57.4997 17.5886C57.4997 17.5815 57.5102 17.5815 57.5137 17.5745C57.5419 17.5108 57.5701 17.4507 57.5982 17.387C57.6264 17.3163 57.6475 17.2456 57.6827 17.1784C57.7425 17.0617 57.8024 16.945 57.8693 16.8319C57.9538 16.6869 58.0382 16.5384 58.1368 16.4075C58.2776 16.2236 58.4396 16.0504 58.5874 15.87C58.6649 15.7781 58.7247 15.7816 58.7564 15.8983C58.7986 16.0433 58.8233 16.1954 58.8549 16.3403C58.8901 16.4959 58.9254 16.6551 58.9606 16.8106C58.9606 16.8142 58.9606 16.8177 58.9641 16.8213C59.0063 16.9238 59.0521 17.0264 59.0873 17.1324C59.126 17.2456 59.1542 17.3658 59.1859 17.4825C59.1894 17.4931 59.1929 17.5002 59.1999 17.5073C59.2422 17.5957 59.295 17.6805 59.3231 17.7725C59.3583 17.8821 59.4006 17.9811 59.4886 18.0271C59.4886 18.0766 59.4815 18.119 59.4921 18.1579C59.4992 18.1933 59.5273 18.2216 59.5414 18.2534C59.5731 18.3241 59.5942 18.4054 59.6364 18.4691C59.7632 18.6636 59.9216 18.8439 60.0237 19.049C60.1082 19.2188 60.2349 19.3461 60.3546 19.4804C60.5799 19.7386 60.858 19.9366 61.1396 20.1311C61.2839 20.2336 61.4494 20.3043 61.5902 20.4104C61.7204 20.5094 61.8542 20.5978 61.9915 20.6862C62.076 20.7428 62.1605 20.7959 62.2485 20.8489C62.3435 20.9055 62.4386 20.955 62.5336 21.008C62.6287 21.0646 62.7202 21.1283 62.8152 21.1848C62.9349 21.2556 63.0616 21.3157 63.1849 21.3829C63.2623 21.4253 63.3292 21.4819 63.4066 21.5208C63.5404 21.588 63.6847 21.641 63.8185 21.7082C63.9135 21.7577 63.9347 21.7542 63.9699 21.6551C63.9523 21.6375 63.9241 21.6233 63.9171 21.6021C63.8643 21.4854 63.815 21.3652 63.7657 21.245C63.7129 21.1106 63.6636 20.9762 63.6108 20.8418C63.5826 20.7676 63.551 20.6933 63.5193 20.6226C63.4806 20.5377 63.4277 20.4564 63.3961 20.3645C63.3538 20.2478 63.3257 20.124 63.2905 20.0038C63.2869 19.9932 63.2799 19.979 63.2764 19.9684C63.2377 19.88 63.1954 19.7916 63.1637 19.6997C63.125 19.5759 63.1004 19.4451 63.0687 19.3213C63.0687 19.3142 63.0652 19.3072 63.0616 19.3036C63.0194 19.1975 62.9701 19.0915 62.9349 18.9818C62.9068 18.8864 62.9103 18.7873 62.8504 18.6919C62.7906 18.5929 62.78 18.4656 62.7554 18.3489C62.7167 18.1685 62.6779 17.9846 62.6427 17.8043C62.6392 17.7937 62.6392 17.7866 62.6357 17.776C62.5899 17.6169 62.5442 17.4613 62.5019 17.3022C62.4667 17.1784 62.4386 17.0546 62.4069 16.9309C62.4069 16.9238 62.4034 16.9167 62.3998 16.9132C62.3329 16.7965 62.259 16.6833 62.2027 16.5631C62.1041 16.3651 61.9633 16.2024 61.812 16.0468C61.5972 15.8276 61.3297 15.6862 61.0551 15.5553C60.9917 15.527 60.9249 15.5058 60.858 15.4917C60.7664 15.4705 60.6714 15.4598 60.5799 15.4422C60.4391 15.4174 60.2982 15.3785 60.1539 15.3714C59.9709 15.3644 59.7843 15.382 59.6012 15.3927C59.4323 15.4033 59.2668 15.4139 59.0978 15.428C59.0521 15.3432 59.1401 15.3396 59.1788 15.3078C59.295 15.2088 59.4041 15.1027 59.5273 15.0108C59.647 14.9224 59.7772 14.8516 59.904 14.7738C60.0413 14.689 60.175 14.597 60.3158 14.5157C60.425 14.452 60.5376 14.399 60.6503 14.3389C60.6996 14.3141 60.7524 14.2929 60.8016 14.2646C60.8685 14.2293 60.9319 14.1833 61.0023 14.155C61.0868 14.1196 61.1853 14.109 61.2593 14.056C61.4106 13.9464 61.5902 13.9252 61.7521 13.858C61.8401 13.8226 61.9246 13.7908 62.0126 13.7554C62.0196 13.759 62.0302 13.759 62.0373 13.7625C62.0373 13.7554 62.0373 13.7519 62.0373 13.7448C62.1464 13.7024 62.2555 13.6635 62.3646 13.6211C62.4139 13.6034 62.4632 13.5751 62.5125 13.5609C62.5653 13.5468 62.6216 13.5397 62.6744 13.5468C62.692 13.5503 62.7096 13.6104 62.7096 13.6458C62.7131 13.7837 62.7307 13.9181 62.6991 14.0595C62.6709 14.1868 62.6991 14.3318 62.7167 14.4662C62.7624 14.8481 62.7272 15.2371 62.8363 15.619C62.8856 15.7887 62.868 15.9761 62.9314 16.1529C62.9948 16.3297 63.0124 16.5242 63.0511 16.7116C63.0511 16.7187 63.0511 16.7258 63.0546 16.7293C63.1426 16.8425 63.1496 16.991 63.213 17.1148C63.2517 17.1925 63.301 17.2668 63.3468 17.3411C63.3538 17.3375 63.3644 17.334 63.3714 17.3305C63.3609 17.3552 63.3503 17.38 63.3362 17.4047C63.3714 17.4224 63.3996 17.433 63.4066 17.4365C63.4172 17.4931 63.4137 17.5391 63.4348 17.5709C63.4876 17.6522 63.5439 17.7336 63.6073 17.8114C63.6918 17.921 63.7798 18.0306 63.8713 18.1367C63.8924 18.1614 63.9382 18.165 63.9628 18.1756C63.9769 18.2039 63.9875 18.2428 64.0121 18.264C64.1212 18.3595 64.2268 18.462 64.3501 18.5398C64.5296 18.6565 64.7197 18.752 64.9063 18.8545C64.952 18.8793 65.0013 18.904 65.0471 18.9217C65.1562 18.9642 65.2688 18.9995 65.378 19.0419C65.4061 19.0526 65.4308 19.0808 65.4589 19.0879C65.5469 19.1091 65.6385 19.1197 65.7265 19.1374C65.7969 19.1516 65.8673 19.1692 65.9377 19.1905C66.0327 19.2188 66.1278 19.2541 66.2263 19.2718C66.3496 19.2965 66.4763 19.3036 66.603 19.3213C66.6101 19.3213 66.6171 19.3248 66.6206 19.3248C66.6945 19.3354 66.772 19.3496 66.8459 19.3602C66.9198 19.3743 66.9902 19.3991 67.0642 19.4026C67.1627 19.4097 67.2719 19.3708 67.3563 19.4062C67.4479 19.4415 67.5324 19.4274 67.6204 19.4345C67.6978 19.438 67.7401 19.4132 67.7225 19.3248C67.6943 19.1905 67.6626 19.0526 67.638 18.9182C67.6063 18.7484 67.6133 18.5752 67.5429 18.4125C67.5007 18.3135 67.5112 18.1968 67.4655 18.0872C67.4162 17.9634 67.4268 17.8184 67.3739 17.6841C67.3211 17.5532 67.3035 17.4047 67.2683 17.2633C67.2648 17.2527 67.2543 17.2421 67.2507 17.2279C67.2085 17.1112 67.1627 16.991 67.124 16.8708C67.0888 16.7647 67.0606 16.6551 67.0254 16.5525C67.0008 16.4783 66.9762 16.4075 66.9445 16.3368C66.9093 16.259 66.8635 16.1812 66.8283 16.1034C66.7931 16.0256 66.7755 15.9408 66.7368 15.8665C66.6699 15.7357 66.5995 15.6048 66.5185 15.4811C66.4235 15.3396 66.3249 15.1946 66.2052 15.0709C66.0715 14.9294 65.9271 14.8021 65.7546 14.6996C65.6173 14.6147 65.4941 14.5086 65.3498 14.4344C65.2407 14.3778 65.1386 14.3106 65.0295 14.254C64.8992 14.1868 64.769 14.1197 64.6352 14.0595C64.5366 14.0136 64.4345 13.9817 64.336 13.9358C64.1846 13.8686 64.0403 13.7943 63.8889 13.7342C63.7798 13.6882 63.6601 13.6635 63.551 13.6246C63.4172 13.5751 63.2834 13.522 63.1496 13.469C63.132 13.4619 63.1215 13.4407 63.1074 13.4266C63.1215 13.416 63.132 13.3983 63.1496 13.3912C63.2517 13.3629 63.3573 13.324 63.463 13.3099C63.6249 13.2851 63.7868 13.2816 63.9452 13.2215C64.0931 13.1684 64.255 13.1755 64.4134 13.1295C64.6282 13.0659 64.864 13.0836 65.0858 13.0128C65.2442 12.9633 65.4272 12.981 65.5962 12.9633C65.7687 12.9492 65.9377 12.9315 66.1102 12.9103C66.2369 12.8926 66.3636 12.8608 66.4904 12.8466C66.7262 12.8254 66.9656 12.8113 67.2015 12.7971C67.2367 12.7936 67.3 12.8148 67.3035 12.836C67.3211 12.8997 67.3247 12.9669 67.3176 13.0341C67.3 13.1755 67.2613 13.3169 67.2543 13.4619C67.2472 13.6493 67.2648 13.8368 67.2613 14.0277C67.2613 14.0949 67.2367 14.1585 67.2296 14.2257C67.2261 14.2823 67.212 14.3566 67.2402 14.3884C67.3035 14.4591 67.3 14.5404 67.3 14.6182C67.2965 14.8799 67.388 15.1274 67.4232 15.382C67.4268 15.3997 67.4373 15.4209 67.4444 15.4386C67.4866 15.5447 67.5288 15.6508 67.5676 15.7569C67.5992 15.8382 67.6274 15.916 67.6591 15.9973C67.6802 16.0504 67.7013 16.0999 67.726 16.1494C67.7929 16.2767 67.8633 16.4005 67.9372 16.5242C67.9653 16.5737 67.9935 16.6232 68.0287 16.6657C68.0815 16.7364 68.1519 16.793 68.1977 16.8672C68.2892 17.0193 68.4054 17.143 68.5286 17.2633C68.606 17.3375 68.7011 17.3906 68.7785 17.4648C68.8877 17.5674 68.9827 17.6841 69.0989 17.7831C69.3594 18.0094 69.6269 18.2286 69.8804 18.4656C70.0986 18.6707 70.3274 18.8687 70.5598 19.0561C70.6583 19.1339 70.7217 19.2435 70.8379 19.3072C70.9329 19.3602 70.9892 19.4804 71.0737 19.5582C71.2638 19.735 71.4574 19.9048 71.6475 20.0816C71.7039 20.1311 71.7461 20.1947 71.8024 20.2442C71.8411 20.2796 71.8869 20.3008 71.9327 20.3291C72.0348 20.4599 72.1509 20.5837 72.2706 20.7075C72.2882 20.7251 72.3164 20.7322 72.3551 20.7499C72.3516 20.6933 72.3516 20.658 72.3445 20.6226C72.3164 20.4882 72.3164 20.3503 72.2636 20.2159C72.1967 20.0356 72.2284 19.8305 72.1544 19.6396C72.0981 19.4946 72.084 19.3319 72.0594 19.1728C72.0312 19.003 72.0277 18.8333 71.9679 18.6671C71.9221 18.5398 71.9327 18.3984 71.8834 18.2605C71.8165 18.073 71.8059 17.8679 71.7672 17.6735C71.7391 17.5214 71.7039 17.3729 71.6686 17.2208C71.6651 17.2102 71.6581 17.2032 71.6546 17.1961C71.6053 17.0157 71.556 16.8319 71.5102 16.6515C71.475 16.5065 71.4434 16.3616 71.4082 16.2166C71.4046 16.2024 71.3976 16.1918 71.3941 16.1812C71.3518 16.0575 71.3061 15.9372 71.2673 15.8135C71.2286 15.6791 71.2005 15.5376 71.1653 15.3997C71.1653 15.3962 71.1653 15.3927 71.1617 15.3891C71.1195 15.2866 71.0808 15.184 71.035 15.0815C70.9752 14.94 70.9224 14.7915 70.8449 14.6607C70.7745 14.5334 70.6865 14.4096 70.5879 14.3035C70.4612 14.1621 70.3169 14.0348 70.1761 13.9039C70.1021 13.8368 70.0177 13.7766 69.9367 13.713C69.8804 13.6706 69.8205 13.6246 69.7572 13.5857C69.5882 13.4867 69.4157 13.3877 69.2397 13.2957C69.0989 13.2215 68.951 13.1543 68.8102 13.0836C68.7609 13.0588 68.7081 13.0341 68.6588 13.0128C68.5497 12.9669 68.4406 12.9209 68.3315 12.8749C68.3033 12.8643 68.2787 12.8431 68.2505 12.829C68.2787 12.8148 68.3103 12.7901 68.3385 12.7901C68.5251 12.783 68.7116 12.7759 68.9017 12.7971C69.1587 12.829 69.4192 12.7653 69.6797 12.8077C69.9015 12.8431 70.1268 12.7688 70.3556 12.8254C70.5351 12.8679 70.7252 12.783 70.9153 12.8466C71.0491 12.8926 71.1934 12.8431 71.3377 12.8714C71.5138 12.9068 71.7039 12.8679 71.8869 12.9032C71.9996 12.9244 72.1192 12.8926 72.2319 12.9068C72.4079 12.9244 72.5804 12.9563 72.7529 12.9846C72.781 12.9881 72.8268 13.0093 72.8268 13.0234C72.8163 13.0765 72.8198 13.1083 72.8198 13.1401C72.8163 13.1826 72.8127 13.2285 72.8092 13.271C72.8092 13.271 72.8092 13.2745 72.8092 13.2816C72.8057 13.37 72.8057 13.4549 72.8022 13.5433C72.8057 13.5433 72.8092 13.5433 72.8127 13.5433C72.8127 13.6211 72.8162 13.6882 72.8162 13.6918C72.8057 13.8509 72.8585 13.9888 72.8409 14.1444C72.8268 14.2858 72.8233 14.2752 72.7986 14.4167C72.7986 14.4238 72.8127 14.6076 72.8127 14.6147C72.8057 14.8127 73.0063 15.0214 72.9993 15.2194C72.9958 15.3113 73.0697 15.3573 73.0732 15.4492C73.0767 15.5765 73.0908 15.7038 73.0979 15.8347C73.1155 16.1459 73.126 16.4606 73.1471 16.7717C73.1542 16.8743 73.1401 16.9945 73.1964 17.0794C73.3056 17.2491 73.2809 17.4401 73.3478 17.6133C73.4182 17.7972 73.4816 17.9846 73.5696 18.1614C73.6541 18.3347 73.7456 18.508 73.8618 18.6671C73.985 18.8298 74.1504 18.9677 74.2772 19.1303C74.3616 19.24 74.4391 19.3496 74.5588 19.4309C74.6151 19.4698 74.6679 19.5123 74.7242 19.5511C74.9777 19.735 75.2206 19.9331 75.4881 20.1028C75.7451 20.269 76.0162 20.4175 76.2943 20.5554C76.4879 20.6544 76.7026 20.7251 76.9068 20.81C76.9385 20.8242 76.9631 20.8454 76.9948 20.8595C77.0863 20.8984 77.1884 20.9373 77.2694 20.9797L77.6672 21.0505C77.5862 20.8701 77.4454 20.6898 77.4454 20.5059C77.4419 20.2937 77.4031 20.078 77.4383 19.8694C77.4876 19.583 77.375 19.3107 77.4066 19.0384C77.4524 18.6141 77.3398 18.211 77.3116 17.7937C77.294 17.5249 77.2694 17.2527 77.1849 17.0016C77.125 16.8213 77.1039 16.6374 77.0511 16.457C77.0194 16.3509 76.9842 16.2449 76.9349 16.1459C76.8927 16.0575 76.8258 15.9761 76.773 15.8913C76.7624 15.8736 76.7589 15.8524 76.7484 15.8347C76.692 15.7357 76.6322 15.6367 76.5759 15.5376C76.5372 15.4705 76.5019 15.3997 76.4562 15.3361C76.3963 15.2512 76.333 15.1699 76.2626 15.0886C76.1781 14.9895 76.0866 14.8976 76.0021 14.8021C75.8789 14.6642 75.7627 14.5192 75.6324 14.3884C75.5268 14.2823 75.4036 14.1868 75.291 14.0878C75.1713 13.9817 75.0586 13.8686 74.9425 13.7625C74.8897 13.713 74.8298 13.667 74.77 13.6246C74.5799 13.4831 74.3898 13.3382 74.1997 13.1967C74.2067 13.1967 74.2138 13.1967 74.2208 13.2003C74.3581 13.2109 74.4884 13.2285 74.6045 13.3028C74.6221 13.3134 74.6785 13.3028 74.6855 13.2851C74.7277 13.179 74.8193 13.225 74.8862 13.225C74.9601 13.225 75.034 13.2498 75.1114 13.2639C75.1502 13.271 75.1889 13.2745 75.2241 13.2816C75.3332 13.3063 75.4424 13.3417 75.5515 13.3558C75.6993 13.3771 75.8472 13.3877 75.995 13.4018C76.0021 13.4018 76.0091 13.4054 76.0126 13.4054C76.1288 13.4336 76.2415 13.4655 76.3576 13.4902C76.4527 13.5114 76.5512 13.5185 76.6498 13.5397C76.766 13.5645 76.8821 13.6034 76.9983 13.6317C77.1321 13.6635 77.2694 13.6847 77.4031 13.713C77.4982 13.7342 77.5932 13.759 77.6883 13.7802C77.7798 13.7979 77.8748 13.812 77.9664 13.8297C78.0333 13.8438 78.0966 13.8721 78.1635 13.8898C78.2797 13.9181 78.3923 13.9428 78.5085 13.9711C78.5331 13.9676 78.5507 13.9959 78.5754 14.0065C78.6669 14.0383 78.6387 14.1055 78.6071 14.1515C78.5296 14.2646 78.4416 14.3707 78.3677 14.4874C78.255 14.6678 78.2022 14.8693 78.1283 15.0603C78.072 15.2017 78.0544 15.3608 78.0368 15.5129C78.0121 15.7109 78.0685 15.9125 78.0227 16.114C78.0051 16.1954 78.0755 16.2908 78.079 16.3792C78.0896 16.6374 78.1389 16.8884 78.2093 17.136C78.2339 17.2244 78.2621 17.3163 78.2973 17.4012C78.3325 17.4931 78.3782 17.5815 78.417 17.6735C78.4486 17.7477 78.4768 17.822 78.5015 17.8962C78.5331 17.9882 78.5578 18.0801 78.5895 18.1685C78.6282 18.2746 78.681 18.3807 78.7197 18.4868C78.7549 18.5787 78.7795 18.6742 78.8147 18.7661C78.8394 18.8333 78.864 18.9005 78.8957 18.9642C78.9344 19.0455 78.9837 19.1233 79.026 19.2046C79.0506 19.2506 79.0788 19.3001 79.0964 19.3496C79.1281 19.438 79.1492 19.5335 79.1879 19.6183C79.2442 19.7421 79.3181 19.8588 79.3745 19.9826C79.4414 20.1346 79.4977 20.2902 79.561 20.4458C79.5892 20.5094 79.635 20.5625 79.6631 20.6261C79.7159 20.7322 79.7687 20.8383 79.8145 20.9479C79.8497 21.0293 79.8708 21.1177 79.9095 21.1955C79.994 21.3581 80.0891 21.5102 80.1771 21.6693C80.2053 21.7223 80.2299 21.7789 80.2581 21.832C80.3038 21.9239 80.3496 22.0158 80.3989 22.1042C80.4129 22.129 80.4376 22.1431 80.4517 22.1679C80.5045 22.274 80.5538 22.3836 80.6136 22.5109C80.691 22.4083 80.7509 22.3341 80.8072 22.2563C80.8459 22.2068 80.8847 22.1573 80.9163 22.1042C80.9727 22.0123 81.022 21.9133 81.0748 21.8178C81.117 21.7436 81.1628 21.6693 81.1944 21.5915C81.2402 21.4854 81.2754 21.3758 81.3141 21.2662C81.3634 21.1353 81.4127 21.001 81.4549 20.8666C81.4831 20.7782 81.4831 20.6792 81.5148 20.5908C81.5605 20.4529 81.6134 20.315 81.6098 20.1664C81.6098 20.1523 81.6133 20.1417 81.6133 20.1275C81.638 20.0144 81.6697 19.9012 81.6908 19.7881C81.7119 19.6678 81.6943 19.5476 81.7154 19.4238C81.7542 19.2011 81.7225 18.9712 81.7295 18.7449C81.7366 18.3701 81.7119 17.9917 81.6204 17.624C81.5676 17.4083 81.5394 17.1855 81.5007 16.9662C81.5007 16.9592 81.4972 16.9521 81.4972 16.9486C81.4549 16.8389 81.4127 16.7293 81.3705 16.6197C81.3106 16.4606 81.2543 16.2979 81.1874 16.1423C81.1311 16.0115 81.0607 15.8806 80.9903 15.7533C80.9586 15.6932 80.9163 15.6402 80.8811 15.5836C80.8283 15.4987 80.7755 15.4139 80.7157 15.3325C80.6558 15.2512 80.589 15.177 80.5256 15.0992C80.4657 15.0284 80.3848 14.9648 80.339 14.8976C80.2651 14.788 80.1595 14.7208 80.075 14.6289C80.0257 14.5758 79.9412 14.5404 79.9694 14.4379C79.987 14.4344 80.0081 14.4238 80.0257 14.4308C80.1419 14.4697 80.2581 14.5122 80.3742 14.5581C80.4869 14.6006 80.596 14.6501 80.7122 14.6925C80.7861 14.7208 80.8671 14.7279 80.941 14.7562C81.1064 14.8198 81.2719 14.8941 81.4373 14.9648C81.4901 14.986 81.55 15.0037 81.6028 15.0249C81.7119 15.0709 81.821 15.1239 81.9337 15.1699C82.0393 15.2159 82.1449 15.2547 82.247 15.3043C82.4124 15.382 82.5709 15.4669 82.7363 15.5482C82.8736 15.6154 83.0109 15.6755 83.1482 15.7392C83.2819 15.8028 83.4157 15.8736 83.5495 15.9408C83.6023 15.969 83.6551 15.9973 83.7079 16.0292C83.8065 16.0893 83.905 16.1529 84.0036 16.2095C84.1796 16.3085 84.3591 16.3969 84.5281 16.503C84.7252 16.6268 84.9083 16.7717 85.109 16.8884C85.3202 17.0087 85.4997 17.1784 85.6968 17.3128C85.9749 17.5037 86.2108 17.7477 86.4642 17.974C86.6227 18.1155 86.7846 18.2428 86.9254 18.409C87.0873 18.5999 87.3056 18.7378 87.4429 18.9535C87.471 18.996 87.5238 19.0207 87.5555 19.0632C87.6435 19.1657 87.7175 19.2859 87.8125 19.3779C87.9744 19.537 88.1469 19.6891 88.3265 19.8305C88.3934 19.8835 88.4814 19.9189 88.5623 19.9472C88.6292 19.9719 88.7031 19.979 88.7735 19.9896C88.7947 19.9932 88.8158 19.9826 88.8369 19.9755C88.8686 19.9649 88.8967 19.9401 88.9284 19.9366C89.0023 19.9295 89.0692 19.9048 89.122 19.8482C89.21 19.7562 89.2347 19.5547 89.1572 19.4557C89.0728 19.3531 88.9918 19.2506 88.8967 19.1622C88.6961 18.9783 88.4919 18.8015 88.2842 18.6282C88.0976 18.4726 87.904 18.3206 87.7139 18.1685C87.5978 18.0766 87.4851 17.9846 87.3654 17.8998C87.2281 17.8008 87.0838 17.7053 86.943 17.6063C86.8656 17.5532 86.7916 17.4896 86.7142 17.4365C86.598 17.3587 86.4818 17.2916 86.3657 17.2173C86.1967 17.1077 86.0348 16.9875 85.8623 16.8849C85.7144 16.793 85.5525 16.7187 85.4011 16.6303C85.1899 16.5065 84.9822 16.3722 84.771 16.2484C84.6232 16.1635 84.4647 16.0999 84.3169 16.0186C84.1268 15.916 83.9367 15.8064 83.7501 15.6932C83.7361 15.6826 83.729 15.6367 83.7361 15.619C83.7501 15.5907 83.7924 15.573 83.8029 15.5412C83.8205 15.4952 83.898 15.4634 83.8417 15.3997C83.8417 15.3962 83.8452 15.3891 83.8522 15.3785C83.8733 15.3856 83.891 15.3962 83.9086 15.4033C83.9543 15.3078 84.0036 15.2194 84.0458 15.1274C84.1092 14.9895 84.1726 14.8516 84.2324 14.7102C84.2782 14.6006 84.331 14.4874 84.3662 14.3743C84.3943 14.2858 84.3908 14.1904 84.4225 14.102C84.4718 13.9499 84.5211 13.7979 84.5105 13.6317C84.5105 13.6175 84.514 13.6069 84.514 13.5928C84.5422 13.4584 84.5739 13.324 84.5915 13.1861C84.602 13.0942 84.602 12.9987 84.5844 12.9103C84.5668 12.829 84.6337 12.7476 84.5739 12.6698C84.5704 12.6628 84.5739 12.6522 84.5774 12.6415C84.588 12.5956 84.6126 12.5461 84.6056 12.5001C84.5774 12.3092 84.5809 12.1182 84.5352 11.9237C84.4753 11.6797 84.4823 11.4145 84.4049 11.1705C84.3662 11.0468 84.3415 10.9195 84.2993 10.7957C84.2395 10.626 84.1655 10.4598 84.0986 10.29C84.0775 10.237 84.0529 10.1875 84.0282 10.138C83.9719 10.0177 83.9191 9.89751 83.8558 9.78435C83.7994 9.6818 83.7325 9.58279 83.6657 9.48732C83.5882 9.37062 83.5143 9.25747 83.4298 9.14431C83.3524 9.03823 83.2714 8.93568 83.1834 8.83667C83.0743 8.7129 82.9862 8.56439 82.8243 8.50427C82.8278 8.47952 82.8384 8.44062 82.8278 8.43001C82.6941 8.30271 82.5638 8.17895 82.423 8.06226C82.2787 7.94556 82.1238 7.83948 81.9724 7.72632C81.902 7.67328 81.8386 7.60963 81.7647 7.56013C81.6486 7.48233 81.5218 7.42222 81.4057 7.34089C81.3176 7.28077 81.3036 7.27723 81.2472 7.37271C81.2402 7.38332 81.2261 7.38685 81.2191 7.39746C81.1346 7.51769 81.0466 7.63085 80.9727 7.75815C80.9093 7.86777 80.86 7.988 80.8037 8.10115C80.7333 8.24613 80.6558 8.38758 80.5995 8.5361C80.5538 8.6634 80.5291 8.79777 80.501 8.93214C80.4693 9.0842 80.4376 9.23979 80.4129 9.39538C80.3953 9.51914 80.3777 9.64644 80.3813 9.77021C80.3953 10.3996 80.4235 11.0255 80.5608 11.6444C80.5643 11.6585 80.5643 11.6691 80.5678 11.6833C80.6101 11.8176 80.6558 11.952 80.6981 12.0864C80.7333 12.1995 80.7614 12.3127 80.7967 12.4258C80.8178 12.493 80.8495 12.5602 80.8811 12.6274C80.9199 12.7123 80.9656 12.7936 81.0043 12.8785C81.0607 13.0058 81.11 13.1366 81.1698 13.2639C81.2226 13.37 81.293 13.4725 81.3564 13.5751C81.4233 13.6812 81.4866 13.7908 81.5535 13.8969C81.6028 13.9747 81.6591 14.0454 81.7084 14.1196C81.7858 14.2363 81.8492 14.3672 81.9372 14.4733C82.0428 14.6041 82.1731 14.7173 82.2857 14.8446C82.335 14.9011 82.3667 14.9719 82.4054 15.0355C82.3948 15.0461 82.3878 15.0567 82.3772 15.0673C82.328 15.0426 82.2787 15.0108 82.2259 15.0001C82.0851 14.9719 81.9689 14.8905 81.8351 14.8446C81.7647 14.8198 81.6873 14.8057 81.6169 14.7774C81.4197 14.696 81.2261 14.6076 81.0325 14.5263C80.9797 14.5051 80.9234 14.4909 80.8706 14.4733C80.7967 14.4485 80.7192 14.4238 80.6453 14.399C80.515 14.353 80.3883 14.3 80.2581 14.254C80.1947 14.2328 80.1102 14.2328 80.068 14.1904C80.0046 14.1303 79.9694 14.155 79.9236 14.2045C79.899 14.1692 79.8814 14.1409 79.8638 14.1161C79.8356 14.1232 79.7969 14.1373 79.7899 14.1303C79.7371 14.0631 79.6596 14.056 79.5857 14.0419C79.4906 14.0242 79.3956 13.9817 79.3005 13.9535C79.2231 13.9287 79.1457 13.9075 79.0717 13.8827C78.9872 13.8544 78.9063 13.812 78.8183 13.7979C78.7091 13.7802 78.6528 13.7201 78.6775 13.6175C78.6951 13.5503 78.7127 13.4867 78.7303 13.4195C78.7619 13.2957 78.7936 13.172 78.8218 13.0482C78.8253 13.0376 78.8253 13.0305 78.8288 13.0199C78.857 12.9032 78.8922 12.7901 78.9098 12.6734C78.9309 12.5496 78.9344 12.4258 78.9556 12.3021C78.9802 12.15 79.0154 11.998 79.04 11.8424C79.0577 11.7186 79.0717 11.5913 79.0753 11.464C79.0788 11.2059 79.0647 10.9442 79.0788 10.6825C79.0999 10.3395 79.0295 10.0001 78.9661 9.66412C78.9309 9.49085 78.8992 9.31758 78.864 9.14431C78.8324 8.99226 78.7936 8.84374 78.7584 8.69522C78.7549 8.68461 78.7514 8.67754 78.7479 8.66693C78.7056 8.55378 78.6599 8.44062 78.6247 8.32747C78.5895 8.21785 78.5613 8.10469 78.5261 7.99507C78.505 7.93142 78.4838 7.8713 78.4557 7.81119C78.3923 7.69096 78.3254 7.57073 78.2586 7.45404C78.2022 7.35149 78.1529 7.24187 78.0861 7.14993C77.9734 7.00142 77.8502 6.85997 77.727 6.72206C77.5791 6.5594 77.4137 6.41795 77.2236 6.3048C77.0757 6.21639 76.9279 6.12092 76.7801 6.03605C76.6991 5.99008 76.6146 5.95472 76.5266 5.9229C76.4527 5.89814 76.3787 5.884 76.3013 5.86632C76.1746 5.83449 76.0514 5.8062 75.9246 5.77791C75.907 5.77438 75.8894 5.77791 75.8753 5.77438C75.7733 5.74255 75.6747 5.70012 75.5691 5.68598C75.4072 5.66476 75.2452 5.65061 75.0833 5.65415C74.7841 5.66476 74.4848 5.68951 74.1856 5.7178C74.1434 5.72134 74.1082 5.75316 74.0519 5.78145C74.0906 5.80974 74.1152 5.82035 74.1258 5.83803C74.1751 5.90875 74.2243 5.97947 74.2666 6.0502C74.3159 6.12799 74.3687 6.20579 74.4074 6.29065C74.4461 6.37906 74.4672 6.47807 74.506 6.57001C74.5729 6.73621 74.6538 6.89533 74.7137 7.06507C74.777 7.24187 74.8263 7.42575 74.8721 7.60609C74.9073 7.7334 74.9354 7.8607 74.9601 7.99153C75.0023 8.23906 75.0375 8.48659 75.0762 8.73412C75.1009 8.88617 75.115 9.03823 75.1572 9.19028C75.2206 9.42367 75.1643 9.67827 75.2699 9.90812C75.3191 10.0213 75.2804 10.1556 75.3614 10.2723C75.4036 10.3325 75.3895 10.4244 75.4353 10.5022C75.5128 10.6295 75.5444 10.7851 75.5972 10.9265C75.6289 11.0114 75.6677 11.0892 75.7029 11.1705C75.7275 11.1634 75.7486 11.1528 75.7627 11.1493C75.7592 11.1953 75.7451 11.2448 75.7592 11.2766C75.8225 11.3898 75.8929 11.4958 75.9633 11.6055C76.0197 11.6903 76.076 11.7717 76.1358 11.853C76.1851 11.9202 76.2344 11.9838 76.2837 12.0475C76.3717 12.1571 76.4632 12.2667 76.5477 12.3799C76.6533 12.5213 76.8434 12.585 76.9103 12.7618C76.9138 12.7688 76.9244 12.7759 76.9314 12.7795C77.0124 12.8502 77.0933 12.928 77.1778 12.9952C77.3538 13.1366 77.5369 13.2781 77.7129 13.4195C77.734 13.4372 77.7446 13.4655 77.7587 13.4867C77.727 13.4938 77.6953 13.5044 77.6672 13.5008C77.6108 13.4902 77.5545 13.469 77.4982 13.4584C77.4102 13.4372 77.3257 13.423 77.2377 13.4054C77.118 13.3771 76.9983 13.3417 76.8786 13.3169C76.7871 13.2957 76.692 13.2887 76.597 13.2674C76.4843 13.2427 76.3787 13.2038 76.2661 13.1826C76.1464 13.1578 76.0232 13.1472 75.9 13.1295C75.8859 13.126 75.8718 13.1295 75.8613 13.126C75.7662 13.0977 75.6712 13.0588 75.5726 13.0411C75.4283 13.0164 75.2804 13.0128 75.1361 12.9987C75.122 12.9987 75.1115 12.9916 75.0974 12.9916C75.0481 12.981 74.9953 12.9633 74.946 12.9563C74.9178 12.9527 74.8862 12.9598 74.858 12.9563C74.7207 12.928 74.5869 12.8961 74.4496 12.8714C74.4004 12.8643 74.3511 12.8785 74.3018 12.8714C74.1715 12.8466 74.0448 12.8042 73.9146 12.7865C73.8054 12.7724 73.6963 12.7795 73.5801 12.7512C73.4041 12.7087 73.2176 12.7158 73.0345 12.7052C73.0275 12.7052 73.0169 12.6981 73.0028 12.6875C73.0063 12.6309 73.0063 12.5708 73.0204 12.5142C73.0451 12.4117 73.0803 12.3127 73.1084 12.2137C73.1331 12.1182 73.1436 12.0227 73.1683 11.9308C73.1929 11.8247 73.2457 11.7186 73.2528 11.6125C73.2668 11.4216 73.2985 11.2342 73.3267 11.0468C73.3513 10.877 73.3267 10.7073 73.3513 10.534C73.376 10.3572 73.3478 10.1698 73.3337 9.98945C73.3161 9.76314 73.3056 9.53329 73.2316 9.31405C73.1859 9.17614 73.1683 9.03116 73.1331 8.89325C73.1155 8.81899 73.0838 8.7518 73.0591 8.67754C73.0521 8.65986 73.0486 8.63865 73.038 8.6245C72.9993 8.55731 72.9571 8.49366 72.9219 8.42648C72.8796 8.34868 72.8409 8.26735 72.7951 8.18956C72.7423 8.10115 72.6895 8.00921 72.6332 7.92435C72.598 7.8713 72.5628 7.8218 72.5241 7.77583C72.429 7.66267 72.3234 7.56012 72.2389 7.4399C72.1474 7.30552 72.0348 7.19944 71.9256 7.08275C71.8482 6.99788 71.7637 6.92009 71.6757 6.84936C71.4046 6.63012 71.1617 6.37552 70.859 6.19164C70.6478 6.06081 70.4506 5.90168 70.2429 5.76377C70.0845 5.65769 69.9156 5.56575 69.7501 5.46674C69.6339 5.39955 69.5213 5.33236 69.4051 5.26518C69.2925 5.20506 69.1798 5.14495 69.0672 5.08837C69.0531 5.0813 69.032 5.0919 69.0144 5.0919C68.9792 5.26164 69.0073 5.42784 68.9897 5.5905C68.9545 5.91229 68.9827 6.24115 68.9827 6.56647C68.9827 6.64073 68.9897 6.71145 68.9968 6.78571C69.039 7.25602 69.0109 7.72986 69.1376 8.19309C69.1904 8.38051 69.1622 8.5856 69.2397 8.77655C69.2925 8.91093 69.3136 9.06298 69.3523 9.20443C69.3734 9.28222 69.3981 9.36002 69.4298 9.43427C69.465 9.51207 69.5178 9.58633 69.5565 9.66059C69.6128 9.76314 69.6551 9.87276 69.722 9.96823C69.817 10.1061 69.9296 10.2334 70.0353 10.3678C70.1514 10.5093 70.2641 10.6542 70.3838 10.7922C70.5386 10.969 70.7006 11.1422 70.859 11.3155C70.9505 11.4145 71.0315 11.5453 71.1441 11.5984C71.2603 11.655 71.3025 11.7752 71.4222 11.8318C71.5384 11.8884 71.6158 12.0227 71.7179 12.1147C71.82 12.2101 71.9327 12.2915 72.0312 12.3869C72.0911 12.4471 72.2072 12.4718 72.1896 12.5991C72.1544 12.6026 72.1192 12.6062 72.0876 12.6062C71.9538 12.5991 71.82 12.5885 71.6863 12.5779C71.5314 12.5673 71.3765 12.5567 71.2216 12.5496C71.0315 12.539 70.8414 12.5531 70.6478 12.5213C70.4577 12.4895 70.2641 12.5355 70.0634 12.5036C69.8205 12.4647 69.5706 12.5249 69.3171 12.4895C69.127 12.4612 68.9299 12.5036 68.7363 12.5072C68.4687 12.5107 68.1977 12.5072 67.9301 12.5107C67.8738 12.5107 67.8668 12.4824 67.8668 12.4365C67.8386 12.0157 67.821 11.5949 67.7823 11.1776C67.7436 10.7603 67.7682 10.336 67.6344 9.92933C67.6028 9.82679 67.6168 9.71009 67.5922 9.60755C67.5535 9.44135 67.4972 9.28222 67.4514 9.11956C67.4162 8.99226 67.388 8.86496 67.3493 8.73766C67.3282 8.66693 67.3 8.59975 67.2719 8.5361C67.2331 8.44416 67.1909 8.35575 67.1487 8.26735C67.117 8.19663 67.0923 8.11883 67.0536 8.05165C66.9902 7.93495 66.9163 7.82534 66.8494 7.71218C66.7966 7.62378 66.7509 7.53537 66.691 7.45404C66.6171 7.35149 66.5326 7.25955 66.4481 7.16408C66.3249 7.0191 66.2158 6.86351 66.075 6.73621C65.9271 6.60183 65.7617 6.48868 65.5927 6.38259C65.4554 6.29773 65.304 6.23761 65.1562 6.17043C65.0999 6.14567 65.0365 6.13153 64.9767 6.11738C64.8851 6.09617 64.7971 6.07849 64.7056 6.06434C64.519 6.03605 64.3289 5.98301 64.1459 5.99362C63.822 6.0113 63.4911 5.98301 63.1743 6.10677C63.0616 6.14921 62.9384 6.14921 62.8187 6.18811C62.6463 6.24468 62.4702 6.28712 62.3013 6.35077C62.2238 6.37906 62.1358 6.37198 62.1182 6.46039C62.0654 6.45685 62.0267 6.43917 61.9985 6.44978C61.9105 6.48514 61.8296 6.53465 61.7451 6.57354C61.6113 6.63366 61.4705 6.6867 61.3402 6.75389C61.2698 6.78925 61.2065 6.83875 61.129 6.8918C61.2241 6.92362 61.298 6.9413 61.3649 6.97666C61.4916 7.04031 61.6148 7.11104 61.738 7.18176C61.8648 7.25602 61.995 7.32674 62.1147 7.41161C62.2062 7.47526 62.2872 7.55659 62.3682 7.63438C62.5512 7.80058 62.7378 7.97032 62.9173 8.14005C62.9948 8.21431 63.0722 8.28857 63.1391 8.3699C63.2236 8.46891 63.301 8.57499 63.3749 8.68108C63.4806 8.8296 63.5932 8.97811 63.6882 9.1337C63.7481 9.22918 63.7974 9.34234 63.8572 9.42367C63.9523 9.5545 64.0121 9.70656 64.1036 9.83386C64.1353 9.87983 64.1635 9.93287 64.1811 9.98945C64.2163 10.0779 64.2409 10.1733 64.2761 10.2617C64.3008 10.3289 64.3289 10.3961 64.3606 10.4633C64.3923 10.5305 64.4345 10.5906 64.4662 10.6578C64.5261 10.7745 64.5718 10.8982 64.6387 11.0114C64.7126 11.1316 64.8077 11.2377 64.8851 11.3544C64.9872 11.51 65.0999 11.6514 65.2372 11.7787C65.3322 11.8671 65.4589 11.9272 65.5223 12.0581C65.554 12.1217 65.6561 12.1571 65.73 12.1995C65.8426 12.2667 65.9588 12.3339 66.075 12.3905C66.1806 12.4435 66.2897 12.486 66.3988 12.5355C66.4235 12.5461 66.4446 12.5638 66.4692 12.5814C66.4446 12.5956 66.42 12.6203 66.3918 12.6239C66.1524 12.6557 65.913 12.6522 65.6701 12.7158C65.3885 12.7901 65.0823 12.7406 64.7936 12.8396C64.6282 12.8961 64.4451 12.8785 64.2691 12.9315C64.079 12.9916 63.8748 12.9987 63.6777 13.0517C63.4806 13.1048 63.2764 13.1331 63.0792 13.172C63.0687 13.1755 63.0616 13.179 63.0511 13.1826C62.9349 13.2215 62.8187 13.2604 62.7061 13.3028C62.6744 13.3134 62.6392 13.3205 62.604 13.3205C62.5864 13.2109 62.5512 13.2038 62.5406 13.0942C62.5406 13.0836 62.4069 12.7229 62.4034 12.7158C62.3611 12.5708 62.2731 12.4612 62.2379 12.3127C62.2062 12.1783 62.2133 12.1889 62.1886 12.0545C62.1886 12.0475 62.1147 11.8884 62.1147 11.8813C62.0584 11.7009 61.812 11.5772 61.7556 11.3933C61.731 11.312 61.65 11.2907 61.6183 11.2094C61.5761 11.0927 61.5198 10.9831 61.474 10.8699C61.3614 10.5941 61.2487 10.3148 61.1361 10.039C61.0973 9.94701 61.0727 9.83386 60.9953 9.77728C60.8439 9.66059 60.8052 9.47671 60.689 9.34234C60.5658 9.20089 60.4496 9.05237 60.3158 8.918C60.1856 8.78716 60.0483 8.65986 59.8934 8.55731C59.7315 8.44769 59.5379 8.37697 59.3759 8.27089C59.2668 8.20016 59.1612 8.12591 59.0274 8.09054C58.9641 8.07286 58.9042 8.05165 58.8409 8.03397C58.5557 7.9491 58.2741 7.84655 57.9784 7.77937C57.6968 7.71218 57.4011 7.66621 57.1089 7.62731C56.9012 7.59902 56.6865 7.60256 56.4753 7.59195C56.4436 7.59195 56.4119 7.57781 56.3802 7.57781C56.2852 7.57073 56.1831 7.5672 56.0951 7.55659L55.7149 7.62024C55.8451 7.75815 56.0282 7.87484 56.088 8.04104C56.1584 8.23199 56.2605 8.41587 56.2957 8.61389C56.3415 8.88971 56.5281 9.09834 56.5879 9.35294C56.6794 9.74899 56.9082 10.0779 57.0667 10.4456C57.1687 10.679 57.2744 10.9195 57.4292 11.121C57.5384 11.266 57.6158 11.4251 57.7214 11.5666C57.7848 11.6514 57.8482 11.7363 57.9256 11.8106C57.9925 11.8777 58.077 11.9308 58.1509 11.9909C58.165 12.005 58.1755 12.0227 58.1931 12.0333C58.2776 12.1041 58.3586 12.1748 58.4431 12.2455C58.4994 12.295 58.5522 12.3445 58.612 12.3905C58.693 12.4471 58.7775 12.5036 58.8655 12.5531C58.9711 12.6133 59.0838 12.6698 59.1894 12.7264C59.3443 12.8113 59.4956 12.9032 59.654 12.9846C59.7843 13.0482 59.9251 13.0906 60.0589 13.1472C60.1997 13.2073 60.337 13.271 60.4743 13.3276C60.5376 13.3558 60.608 13.3771 60.6749 13.3983C60.9354 13.4796 61.1924 13.5609 61.4529 13.6423C61.5022 13.6564 61.5479 13.6741 61.5972 13.6882C61.5972 13.6882 61.5972 13.6882 61.5937 13.6882C61.4881 13.7307 61.379 13.7554 61.2698 13.7908C61.2558 13.7943 61.2382 13.8014 61.2241 13.8085C61.1009 13.8686 60.9777 13.9287 60.858 13.9888C60.8157 14.01 60.777 14.0383 60.7348 14.056C60.6468 14.0949 60.5517 14.1267 60.4637 14.1727C60.3546 14.2293 60.249 14.2965 60.1398 14.3566C60.0448 14.4096 59.9427 14.4591 59.8477 14.5157C59.7667 14.5687 59.6998 14.6359 59.6224 14.6925C59.4463 14.8198 59.2598 14.933 59.0908 15.0673C58.9535 15.177 58.8338 15.3113 58.7036 15.428C58.6649 15.4634 58.6121 15.5023 58.5522 15.428C58.517 15.382 58.4959 15.3396 58.4748 15.2901C58.429 15.1911 58.3551 15.1062 58.2987 15.0143C58.2319 14.9047 58.1685 14.7915 58.1016 14.6854C58.0523 14.6041 57.9925 14.5298 57.9432 14.4485C57.8869 14.353 57.8446 14.2505 57.7813 14.1621C57.7109 14.0631 57.6193 13.9782 57.5419 13.8827C57.4926 13.8262 57.4292 13.7696 57.4046 13.7024C57.3272 13.5079 57.1617 13.3806 57.042 13.2215C56.9118 13.0447 56.7463 12.8926 56.5985 12.7335C56.5738 12.7087 56.5386 12.6911 56.5105 12.6698C56.4929 12.6557 56.4717 12.638 56.4541 12.6239C56.4154 12.5814 56.3837 12.5355 56.338 12.5001C56.1549 12.348 55.9754 12.196 55.7853 12.0545C55.6586 11.9626 55.5107 11.8954 55.3769 11.8106C55.2889 11.754 55.2045 11.7151 55.1024 11.6903C54.9756 11.6585 54.863 11.5878 54.7398 11.5418C54.6729 11.5171 54.599 11.5064 54.5286 11.4888C54.3983 11.4569 54.2681 11.4287 54.1378 11.4004C54.1237 11.3968 54.1061 11.4004 54.0885 11.3968C53.9442 11.3721 53.7963 11.3367 53.652 11.3261C53.483 11.319 53.307 11.3261 53.1381 11.3438C52.7614 11.3862 52.3777 11.3473 52.0116 11.4746C51.8602 11.5277 51.6983 11.5453 51.5399 11.5772C51.5117 11.5842 51.4835 11.5878 51.4448 11.5984C51.4835 11.5772 51.4976 11.5984 51.5152 11.6196Z" fill="white"/>
<path d="M62.0309 13.7618C61.9688 13.7545 62.0819 13.7765 62.0309 13.7618V13.7618Z" fill="white"/>
<path d="M40.6447 66.9194H39.8452L40.948 62.9768C41.0093 62.7685 41.0277 62.6214 41.0032 62.5357C40.9848 62.4499 40.9235 62.407 40.8194 62.407C40.6846 62.407 40.562 62.4775 40.4517 62.6184C40.3415 62.7593 40.2251 63.0013 40.1025 63.3444L39.983 63.6844H39.8084L40.0382 63.0136C40.1301 62.7562 40.2373 62.5602 40.3598 62.4254C40.4885 62.2906 40.6202 62.1987 40.755 62.1497C40.8959 62.0945 41.0277 62.067 41.1502 62.067C41.334 62.067 41.4627 62.1068 41.5362 62.1864C41.6159 62.2661 41.6587 62.3702 41.6649 62.4989C41.6771 62.6276 41.6679 62.7685 41.6373 62.9217C41.6128 63.0687 41.5822 63.2127 41.5454 63.3536L40.6447 66.9194ZM43.0067 62.2967C42.8657 62.2967 42.7187 62.3641 42.5655 62.4989C42.4185 62.6276 42.2653 62.8175 42.106 63.0687C41.9528 63.3138 41.7966 63.6109 41.6373 63.9602C41.4841 64.3033 41.331 64.6862 41.1778 65.1089C41.0307 65.5317 40.8868 65.9881 40.7458 66.4783L40.9756 65.3019C41.1778 64.7015 41.3646 64.196 41.5362 63.7855C41.7139 63.375 41.8885 63.0442 42.06 62.793C42.2316 62.5357 42.4062 62.3519 42.5839 62.2416C42.7677 62.1252 42.9607 62.067 43.1629 62.067C43.3344 62.067 43.4662 62.116 43.5581 62.214C43.6561 62.312 43.7051 62.4376 43.7051 62.5908C43.7051 62.7133 43.6745 62.8267 43.6132 62.9308C43.5519 63.0289 43.4723 63.1085 43.3743 63.1698C43.2824 63.2249 43.1782 63.2525 43.0618 63.2525C42.9576 63.2525 42.8688 63.2249 42.7953 63.1698C42.7279 63.1085 42.6942 63.0258 42.6942 62.9217C42.6942 62.8236 42.7126 62.7378 42.7493 62.6643C42.7861 62.5847 42.8351 62.5173 42.8964 62.4621C42.9576 62.407 43.0281 62.3641 43.1077 62.3335C43.0955 62.3212 43.0802 62.312 43.0618 62.3059C43.0495 62.2998 43.0312 62.2967 43.0067 62.2967ZM44.0383 64.8332C44.3814 64.7168 44.6908 64.6035 44.9665 64.4932C45.2483 64.3768 45.4719 64.2542 45.6374 64.1256C45.8579 63.9479 46.0326 63.7335 46.1612 63.4823C46.2899 63.2311 46.3542 62.9553 46.3542 62.6551C46.3542 62.4775 46.342 62.3641 46.3175 62.3151C46.2929 62.2661 46.2562 62.2416 46.2072 62.2416C46.054 62.2416 45.8886 62.309 45.7109 62.4438C45.5332 62.5785 45.3586 62.7654 45.187 63.0044C45.0155 63.2372 44.8562 63.5037 44.7092 63.8039C44.5682 64.1041 44.4549 64.4258 44.3691 64.7689C44.2833 65.1059 44.2404 65.4429 44.2404 65.7798C44.2404 66.0923 44.2987 66.319 44.4151 66.4599C44.5315 66.5947 44.6846 66.6621 44.8746 66.6621C45.0951 66.6621 45.328 66.5947 45.573 66.4599C45.8181 66.3251 46.0571 66.0862 46.2899 65.7431L46.4369 65.8166C46.3205 66.0188 46.1673 66.2148 45.9774 66.4048C45.7875 66.5947 45.573 66.7509 45.3341 66.8735C45.1013 66.9899 44.8531 67.0481 44.5897 67.0481C44.3446 67.0481 44.1302 66.9991 43.9464 66.9011C43.7626 66.803 43.6216 66.659 43.5236 66.4691C43.4256 66.273 43.3766 66.0341 43.3766 65.7523C43.3766 65.4888 43.4256 65.1947 43.5236 64.87C43.6216 64.5391 43.7595 64.2114 43.9372 63.8866C44.121 63.5558 44.3385 63.2525 44.5897 62.9768C44.8409 62.7011 45.1197 62.4805 45.426 62.3151C45.7323 62.1497 46.0601 62.067 46.4094 62.067C46.5993 62.067 46.7586 62.119 46.8873 62.2232C47.022 62.3212 47.0894 62.4713 47.0894 62.6735C47.0894 62.9186 47.0159 63.1483 46.8689 63.3628C46.728 63.5711 46.538 63.7641 46.2991 63.9418C46.0663 64.1133 45.812 64.2665 45.5363 64.4013C45.2606 64.5361 44.991 64.6525 44.7275 64.7505C44.4641 64.8486 44.2313 64.9282 44.0291 64.9895L44.0383 64.8332ZM47.7485 66.7816C47.7975 66.8061 47.8496 66.8275 47.9047 66.8459C47.966 66.8582 48.0548 66.8643 48.1712 66.8643C48.4408 66.8643 48.6614 66.7846 48.8329 66.6253C49.0106 66.4599 49.0995 66.224 49.0995 65.9177C49.0995 65.7278 49.0627 65.5409 48.9892 65.3571C48.9218 65.1671 48.7992 64.9496 48.6216 64.7046C48.4806 64.5085 48.3459 64.3094 48.2172 64.1072C48.0885 63.8989 48.0242 63.6538 48.0242 63.372C48.0242 63.1085 48.0885 62.8818 48.2172 62.6919C48.3459 62.4958 48.5174 62.3427 48.7319 62.2324C48.9524 62.1221 49.1914 62.067 49.4487 62.067C49.6264 62.067 49.801 62.0884 49.9725 62.1313C50.1441 62.1742 50.285 62.2538 50.3953 62.3702C50.5117 62.4805 50.5699 62.6459 50.5699 62.8665C50.5699 62.9217 50.5546 62.989 50.524 63.0687C50.4995 63.1422 50.4566 63.2066 50.3953 63.2617C50.334 63.3168 50.2513 63.3444 50.1472 63.3444C50.0491 63.3444 49.9634 63.3107 49.8898 63.2433C49.8163 63.1698 49.7795 63.0748 49.7795 62.9584C49.7795 62.8481 49.801 62.744 49.8439 62.6459C49.8929 62.5418 49.9572 62.4407 50.0369 62.3427C49.9205 62.2691 49.7673 62.2324 49.5774 62.2324C49.3507 62.2324 49.1607 62.309 49.0076 62.4621C48.8544 62.6153 48.7778 62.8297 48.7778 63.1055C48.7778 63.2464 48.7992 63.372 48.8421 63.4823C48.885 63.5864 48.9463 63.6967 49.0259 63.8131C49.1117 63.9295 49.2128 64.0766 49.3292 64.2542C49.4824 64.4871 49.6111 64.7107 49.7152 64.9251C49.8194 65.1396 49.8714 65.3663 49.8714 65.6052C49.8714 65.8871 49.7979 66.1383 49.6509 66.3588C49.51 66.5733 49.32 66.7418 49.0811 66.8643C48.8421 66.9868 48.5787 67.0481 48.2907 67.0481C48.0824 67.0481 47.8833 67.0175 47.6933 66.9562C47.5034 66.8949 47.3472 66.8 47.2246 66.6713C47.1082 66.5365 47.05 66.3588 47.05 66.1383C47.05 66.0525 47.0776 65.9636 47.1327 65.8717C47.1818 65.7737 47.2737 65.7247 47.4084 65.7247C47.5555 65.7247 47.6596 65.786 47.7209 65.9085C47.7822 66.0249 47.8128 66.1566 47.8128 66.3037C47.8128 66.4017 47.8036 66.4906 47.7852 66.5702C47.773 66.6437 47.7607 66.7142 47.7485 66.7816ZM51.4785 64.8332C51.8216 64.7168 52.131 64.6035 52.4067 64.4932C52.6885 64.3768 52.9121 64.2542 53.0776 64.1256C53.2981 63.9479 53.4728 63.7335 53.6014 63.4823C53.7301 63.2311 53.7944 62.9553 53.7944 62.6551C53.7944 62.4775 53.7822 62.3641 53.7577 62.3151C53.7331 62.2661 53.6964 62.2416 53.6474 62.2416C53.4942 62.2416 53.3288 62.309 53.1511 62.4438C52.9734 62.5785 52.7988 62.7654 52.6272 63.0044C52.4557 63.2372 52.2964 63.5037 52.1494 63.8039C52.0084 64.1041 51.8951 64.4258 51.8093 64.7689C51.7235 65.1059 51.6806 65.4429 51.6806 65.7798C51.6806 66.0923 51.7389 66.319 51.8553 66.4599C51.9717 66.5947 52.1248 66.6621 52.3148 66.6621C52.5353 66.6621 52.7682 66.5947 53.0132 66.4599C53.2583 66.3251 53.4973 66.0862 53.7301 65.7431L53.8771 65.8166C53.7607 66.0188 53.6075 66.2148 53.4176 66.4048C53.2277 66.5947 53.0132 66.7509 52.7743 66.8735C52.5415 66.9899 52.2933 67.0481 52.0299 67.0481C51.7848 67.0481 51.5704 66.9991 51.3866 66.9011C51.2028 66.803 51.0618 66.659 50.9638 66.4691C50.8658 66.273 50.8168 66.0341 50.8168 65.7523C50.8168 65.4888 50.8658 65.1947 50.9638 64.87C51.0618 64.5391 51.1997 64.2114 51.3774 63.8866C51.5612 63.5558 51.7787 63.2525 52.0299 62.9768C52.2811 62.7011 52.5599 62.4805 52.8662 62.3151C53.1725 62.1497 53.5003 62.067 53.8496 62.067C54.0395 62.067 54.1988 62.119 54.3275 62.2232C54.4622 62.3212 54.5296 62.4713 54.5296 62.6735C54.5296 62.9186 54.4561 63.1483 54.3091 63.3628C54.1682 63.5711 53.9782 63.7641 53.7393 63.9418C53.5065 64.1133 53.2522 64.2665 52.9765 64.4013C52.7008 64.5361 52.4312 64.6525 52.1677 64.7505C51.9043 64.8486 51.6715 64.9282 51.4693 64.9895L51.4785 64.8332ZM55.7585 66.9194H54.9589L56.0618 62.9768C56.123 62.7685 56.1414 62.6214 56.1169 62.5357C56.0985 62.4499 56.0373 62.407 55.9331 62.407C55.7983 62.407 55.6758 62.4775 55.5655 62.6184C55.4552 62.7593 55.3388 63.0013 55.2163 63.3444L55.0968 63.6844H54.9222L55.1519 63.0136C55.2438 62.7562 55.351 62.5602 55.4736 62.4254C55.6022 62.2906 55.734 62.1987 55.8688 62.1497C56.0097 62.0945 56.1414 62.067 56.264 62.067C56.4478 62.067 56.5764 62.1068 56.6499 62.1864C56.7296 62.2661 56.7725 62.3702 56.7786 62.4989C56.7909 62.6276 56.7817 62.7685 56.751 62.9217C56.7265 63.0687 56.6959 63.2127 56.6591 63.3536L55.7585 66.9194ZM58.1204 62.2967C57.9795 62.2967 57.8324 62.3641 57.6793 62.4989C57.5322 62.6276 57.379 62.8175 57.2197 63.0687C57.0666 63.3138 56.9103 63.6109 56.751 63.9602C56.5979 64.3033 56.4447 64.6862 56.2915 65.1089C56.1445 65.5317 56.0005 65.9881 55.8596 66.4783L56.0893 65.3019C56.2915 64.7015 56.4784 64.196 56.6499 63.7855C56.8276 63.375 57.0022 63.0442 57.1738 62.793C57.3453 62.5357 57.52 62.3519 57.6976 62.2416C57.8814 62.1252 58.0744 62.067 58.2766 62.067C58.4482 62.067 58.5799 62.116 58.6718 62.214C58.7698 62.312 58.8189 62.4376 58.8189 62.5908C58.8189 62.7133 58.7882 62.8267 58.727 62.9308C58.6657 63.0289 58.586 63.1085 58.488 63.1698C58.3961 63.2249 58.2919 63.2525 58.1755 63.2525C58.0714 63.2525 57.9825 63.2249 57.909 63.1698C57.8416 63.1085 57.8079 63.0258 57.8079 62.9217C57.8079 62.8236 57.8263 62.7378 57.8631 62.6643C57.8998 62.5847 57.9488 62.5173 58.0101 62.4621C58.0714 62.407 58.1418 62.3641 58.2215 62.3335C58.2092 62.3212 58.1939 62.312 58.1755 62.3059C58.1633 62.2998 58.1449 62.2967 58.1204 62.2967ZM62.9157 63.4363C62.7442 63.3505 62.5849 63.2249 62.4378 63.0595C62.2908 62.8941 62.2264 62.6888 62.2448 62.4438C62.2571 62.3028 62.3061 62.2048 62.3919 62.1497C62.4838 62.0884 62.5696 62.0578 62.6492 62.0578C62.8636 62.0578 63.0107 62.1803 63.0903 62.4254C63.17 62.6643 63.1884 62.9737 63.1455 63.3536C63.1026 63.7151 63.0291 64.0735 62.9249 64.4289C62.8208 64.7842 62.686 65.1181 62.5205 65.4306C62.3612 65.7431 62.1682 66.0218 61.9415 66.2669C61.7149 66.512 61.4606 66.705 61.1788 66.8459C60.8969 66.9807 60.5844 67.0481 60.2413 67.0481C59.9656 67.0481 59.7481 66.993 59.5888 66.8827C59.4357 66.7663 59.3284 66.6223 59.2672 66.4507C59.2059 66.273 59.1814 66.0923 59.1936 65.9085C59.2182 65.5654 59.3223 65.1978 59.5061 64.8057C59.6961 64.4074 59.9442 64.0061 60.2505 63.6017C60.563 63.1912 60.9214 62.796 61.3258 62.4162C61.2278 62.4529 61.1236 62.505 61.0133 62.5724C60.903 62.6337 60.7958 62.698 60.6917 62.7654C60.5875 62.8267 60.4864 62.8818 60.3884 62.9308C60.2904 62.9737 60.1985 62.9952 60.1127 62.9952C59.9963 62.9952 59.8952 62.9584 59.8094 62.8849C59.7297 62.8052 59.6378 62.7654 59.5337 62.7654C59.4357 62.7654 59.3529 62.8083 59.2856 62.8941C59.2243 62.9737 59.1569 63.1208 59.0834 63.3352L58.9823 63.6753H58.8077L59.0098 63.0044C59.114 62.6368 59.2427 62.3886 59.3958 62.2599C59.5551 62.1313 59.7144 62.067 59.8737 62.067C59.9901 62.067 60.0882 62.0976 60.1678 62.1589C60.2475 62.2201 60.3271 62.2814 60.4068 62.3427C60.4925 62.3978 60.5936 62.4254 60.71 62.4254C60.8571 62.4254 60.9949 62.4039 61.1236 62.361C61.2584 62.312 61.3779 62.2385 61.482 62.1405L61.5739 61.9659L61.7669 62.0578C61.5219 62.358 61.3013 62.6582 61.1052 62.9584C60.9153 63.2586 60.7499 63.5619 60.609 63.8683C60.4742 64.1746 60.3639 64.484 60.2781 64.7965C60.1985 65.1089 60.1433 65.4275 60.1127 65.7523C60.0882 66.1076 60.1127 66.3619 60.1862 66.5151C60.2659 66.6682 60.3731 66.7448 60.5079 66.7448C60.7958 66.7448 61.0623 66.6682 61.3074 66.5151C61.5525 66.3619 61.77 66.1597 61.9599 65.9085C62.156 65.6573 62.3214 65.3847 62.4562 65.0906C62.5971 64.7903 62.7043 64.4963 62.7779 64.2083C62.8575 63.9203 62.9035 63.663 62.9157 63.4363ZM64.6729 66.754C64.82 66.754 64.9885 66.6621 65.1784 66.4783C65.3683 66.2884 65.5613 66.0341 65.7574 65.7155C65.9535 65.3969 66.1342 65.0354 66.2996 64.631C66.465 64.2267 66.5968 63.807 66.6948 63.372L66.5386 64.3645C66.3057 65.014 66.0729 65.5378 65.8401 65.9361C65.6073 66.3282 65.3714 66.6131 65.1325 66.7908C64.8935 66.9623 64.6515 67.0481 64.4064 67.0481C64.1185 67.0481 63.901 66.9439 63.7539 66.7356C63.613 66.5273 63.5425 66.2608 63.5425 65.9361C63.5425 65.642 63.5915 65.3234 63.6896 64.9803C63.7876 64.631 63.9224 64.2849 64.0939 63.9418C64.2716 63.5987 64.4738 63.2862 64.7005 63.0044C64.9272 62.7225 65.1723 62.4958 65.4357 62.3243C65.7053 62.1527 65.978 62.067 66.2537 62.067C66.4681 62.067 66.6305 62.1742 66.7408 62.3886C66.8572 62.5969 66.8817 62.891 66.8143 63.2709L66.7132 63.326C66.7561 63.0013 66.7346 62.7409 66.6489 62.5448C66.5631 62.3427 66.4222 62.2416 66.2261 62.2416C66.0668 62.2416 65.8983 62.3212 65.7206 62.4805C65.5491 62.6337 65.3806 62.8451 65.2152 63.1146C65.0559 63.3781 64.9088 63.6753 64.774 64.0061C64.6454 64.337 64.5412 64.6801 64.4616 65.0354C64.388 65.3847 64.3513 65.7216 64.3513 66.0464C64.3513 66.3098 64.3788 66.4936 64.434 66.5978C64.4953 66.7019 64.5749 66.754 64.6729 66.754ZM66.9889 62.1956C67.1359 62.1895 67.283 62.1772 67.43 62.1589C67.5771 62.1405 67.7119 62.1098 67.8344 62.067L66.6856 66.1291C66.6734 66.1842 66.655 66.2577 66.6305 66.3496C66.6121 66.4354 66.6121 66.5151 66.6305 66.5886C66.655 66.6621 66.7193 66.6989 66.8235 66.6989C66.946 66.6989 67.0655 66.6315 67.1819 66.4967C67.2983 66.3619 67.4147 66.1168 67.5311 65.7615L67.6414 65.4214H67.816L67.5863 66.0923C67.5005 66.3374 67.3963 66.5304 67.2738 66.6713C67.1574 66.8061 67.0348 66.9011 66.9062 66.9562C66.7775 67.0175 66.6519 67.0481 66.5294 67.0481C66.2904 67.0481 66.1219 66.9684 66.0239 66.8091C65.9443 66.6682 65.9228 66.5059 65.9596 66.3221C65.9963 66.1321 66.0392 65.9422 66.0882 65.7523L66.9889 62.1956ZM71.5323 66.1383C71.4833 66.3159 71.4679 66.4569 71.4863 66.561C71.5047 66.659 71.5721 66.7081 71.6885 66.7081C71.8111 66.7081 71.9244 66.6407 72.0286 66.5059C72.1388 66.365 72.2552 66.1199 72.3778 65.7706L72.4973 65.4306H72.6719L72.4421 66.1015C72.3625 66.3343 72.2644 66.5212 72.148 66.6621C72.0377 66.7969 71.9152 66.8949 71.7804 66.9562C71.6456 67.0175 71.4986 67.0481 71.3393 67.0481C71.1371 67.0481 70.987 67.0083 70.889 66.9286C70.7971 66.8551 70.7388 66.754 70.7143 66.6253C70.696 66.4967 70.699 66.3588 70.7235 66.2118C70.7542 66.0586 70.7909 65.9085 70.8338 65.7615L72.3318 60.7895C72.3931 60.5812 72.387 60.428 72.3135 60.33C72.2399 60.232 72.0531 60.1829 71.7528 60.1829L71.8172 59.9899C72.1542 59.9838 72.4513 59.9501 72.7086 59.8889C72.966 59.8215 73.2141 59.7296 73.4531 59.6131L71.5323 66.1383ZM73.9157 64.8332C74.2588 64.7168 74.5682 64.6035 74.8439 64.4932C75.1258 64.3768 75.3494 64.2542 75.5148 64.1256C75.7354 63.9479 75.91 63.7335 76.0387 63.4823C76.1674 63.2311 76.2317 62.9553 76.2317 62.6551C76.2317 62.4775 76.2194 62.3641 76.1949 62.3151C76.1704 62.2661 76.1337 62.2416 76.0846 62.2416C75.9315 62.2416 75.766 62.309 75.5884 62.4438C75.4107 62.5785 75.2361 62.7654 75.0645 63.0044C74.893 63.2372 74.7337 63.5037 74.5866 63.8039C74.4457 64.1041 74.3324 64.4258 74.2466 64.7689C74.1608 65.1059 74.1179 65.4429 74.1179 65.7798C74.1179 66.0923 74.1761 66.319 74.2925 66.4599C74.4089 66.5947 74.5621 66.6621 74.752 66.6621C74.9726 66.6621 75.2054 66.5947 75.4505 66.4599C75.6956 66.3251 75.9345 66.0862 76.1674 65.7431L76.3144 65.8166C76.198 66.0188 76.0448 66.2148 75.8549 66.4048C75.6649 66.5947 75.4505 66.7509 75.2116 66.8735C74.9787 66.9899 74.7306 67.0481 74.4671 67.0481C74.2221 67.0481 74.0076 66.9991 73.8238 66.9011C73.64 66.803 73.4991 66.659 73.4011 66.4691C73.303 66.273 73.254 66.0341 73.254 65.7523C73.254 65.4888 73.303 65.1947 73.4011 64.87C73.4991 64.5391 73.637 64.2114 73.8146 63.8866C73.9984 63.5558 74.2159 63.2525 74.4671 62.9768C74.7183 62.7011 74.9971 62.4805 75.3035 62.3151C75.6098 62.1497 75.9376 62.067 76.2868 62.067C76.4768 62.067 76.6361 62.119 76.7647 62.2232C76.8995 62.3212 76.9669 62.4713 76.9669 62.6735C76.9669 62.9186 76.8934 63.1483 76.7463 63.3628C76.6054 63.5711 76.4155 63.7641 76.1765 63.9418C75.9437 64.1133 75.6895 64.2665 75.4137 64.4013C75.138 64.5361 74.8685 64.6525 74.605 64.7505C74.3415 64.8486 74.1087 64.9282 73.9065 64.9895L73.9157 64.8332ZM78.0211 66.1383C77.9721 66.3159 77.9568 66.4569 77.9752 66.561C77.9936 66.659 78.061 66.7081 78.1774 66.7081C78.2999 66.7081 78.4133 66.6407 78.5174 66.5059C78.6277 66.365 78.7441 66.1199 78.8666 65.7706L78.9861 65.4306H79.1607L78.931 66.1015C78.8513 66.3343 78.7533 66.5212 78.6369 66.6621C78.5266 66.7969 78.4041 66.8949 78.2693 66.9562C78.1345 67.0175 77.9874 67.0481 77.8281 67.0481C77.626 67.0481 77.4758 67.0083 77.3778 66.9286C77.2859 66.8551 77.2277 66.754 77.2032 66.6253C77.1848 66.4967 77.1879 66.3588 77.2124 66.2118C77.243 66.0586 77.2798 65.9085 77.3227 65.7615L78.8207 60.7895C78.882 60.5812 78.8758 60.428 78.8023 60.33C78.7288 60.232 78.5419 60.1829 78.2417 60.1829L78.306 59.9899C78.643 59.9838 78.9402 59.9501 79.1975 59.8889C79.4548 59.8215 79.703 59.7296 79.9419 59.6131L78.0211 66.1383ZM82.4265 62.2508C82.2304 62.2508 82.0405 62.3304 81.8567 62.4897C81.679 62.6429 81.5135 62.8543 81.3604 63.1238C81.2133 63.3873 81.0816 63.6844 80.9652 64.0153C80.8549 64.3461 80.7691 64.6893 80.7079 65.0446C80.6466 65.4 80.616 65.74 80.616 66.0647C80.616 66.3404 80.6588 66.5426 80.7446 66.6713C80.8365 66.8 80.9683 66.8643 81.1398 66.8643C81.3359 66.8643 81.5227 66.7877 81.7004 66.6345C81.8842 66.4752 82.0527 66.2639 82.2059 66.0004C82.3591 65.7308 82.4908 65.4306 82.6011 65.0998C82.7114 64.7689 82.7971 64.4289 82.8584 64.0796C82.9197 63.7243 82.9503 63.3812 82.9503 63.0503C82.9503 62.7685 82.9074 62.5663 82.8216 62.4438C82.7359 62.3151 82.6041 62.2508 82.4265 62.2508ZM79.8256 65.6052C79.8256 65.3356 79.8624 65.0415 79.9359 64.723C80.0094 64.4044 80.1197 64.0888 80.2667 63.7763C80.4138 63.4639 80.5915 63.179 80.7998 62.9217C81.0142 62.6643 81.2623 62.4591 81.5442 62.3059C81.826 62.1466 82.1385 62.067 82.4816 62.067C82.8615 62.067 83.1647 62.1864 83.3914 62.4254C83.6243 62.6582 83.7407 63.0197 83.7407 63.5098C83.7407 63.7794 83.7039 64.0735 83.6304 64.3921C83.5569 64.7107 83.4466 65.0262 83.2995 65.3387C83.1525 65.6512 82.9717 65.9361 82.7573 66.1934C82.549 66.4507 82.3039 66.659 82.0221 66.8183C81.7402 66.9715 81.4278 67.0481 81.0847 67.0481C80.7048 67.0481 80.3985 66.9286 80.1656 66.6897C79.9389 66.4507 79.8256 66.0892 79.8256 65.6052ZM85.857 60.523C85.8877 60.3637 85.9673 60.2258 86.096 60.1094C86.2308 59.993 86.3747 59.9348 86.5279 59.9348C86.6872 59.9348 86.8097 59.993 86.8955 60.1094C86.9874 60.2258 87.0181 60.3637 86.9874 60.523C86.9568 60.6823 86.8741 60.8201 86.7393 60.9365C86.6106 61.053 86.4666 61.1112 86.3073 61.1112C86.1542 61.1112 86.0316 61.053 85.9397 60.9365C85.854 60.8201 85.8264 60.6823 85.857 60.523ZM85.5721 62.9768C85.7008 62.5969 85.6579 62.407 85.4435 62.407C85.3025 62.407 85.1769 62.4836 85.0667 62.6368C84.9564 62.7899 84.84 63.0258 84.7174 63.3444L84.5888 63.6844H84.4141L84.6531 63.0136C84.745 62.7562 84.8553 62.5602 84.9839 62.4254C85.1126 62.2906 85.2474 62.1987 85.3883 62.1497C85.5354 62.0945 85.6702 62.067 85.7927 62.067C85.9887 62.067 86.1327 62.1068 86.2246 62.1864C86.3165 62.2661 86.3717 62.3702 86.3901 62.4989C86.4084 62.6276 86.4023 62.7685 86.3717 62.9217C86.341 63.0687 86.3012 63.2127 86.2522 63.3536L85.2688 66.1383C85.2076 66.3159 85.1861 66.4569 85.2045 66.561C85.229 66.659 85.2995 66.7081 85.4159 66.7081C85.5384 66.7081 85.6548 66.6407 85.7651 66.5059C85.8754 66.3711 85.9979 66.126 86.1327 65.7706L86.2614 65.4306H86.436L86.1971 66.1015C86.1113 66.3404 86.0071 66.5304 85.8846 66.6713C85.7621 66.8061 85.6303 66.9011 85.4894 66.9562C85.3485 67.0175 85.2076 67.0481 85.0667 67.0481C84.8032 67.0481 84.6255 66.9868 84.5336 66.8643C84.4417 66.7418 84.408 66.5825 84.4325 66.3864C84.457 66.1903 84.5091 65.982 84.5888 65.7615L85.5721 62.9768ZM88.0053 66.9194H87.2058L88.3086 62.9768C88.3699 62.7685 88.3883 62.6214 88.3637 62.5357C88.3454 62.4499 88.2841 62.407 88.1799 62.407C88.0452 62.407 87.9226 62.4775 87.8123 62.6184C87.702 62.7593 87.5856 63.0013 87.4631 63.3444L87.3436 63.6844H87.169L87.3988 63.0136C87.4907 62.7562 87.5979 62.5602 87.7204 62.4254C87.8491 62.2906 87.9808 62.1987 88.1156 62.1497C88.2565 62.0945 88.3883 62.067 88.5108 62.067C88.6946 62.067 88.8233 62.1068 88.8968 62.1864C88.9764 62.2661 89.0193 62.3702 89.0254 62.4989C89.0377 62.6276 89.0285 62.7685 88.9979 62.9217C88.9734 63.0687 88.9427 63.2127 88.906 63.3536L88.0053 66.9194ZM90.3672 62.2967C90.2263 62.2967 90.0793 62.3641 89.9261 62.4989C89.7791 62.6276 89.6259 62.8175 89.4666 63.0687C89.3134 63.3138 89.1572 63.6109 88.9979 63.9602C88.8447 64.3033 88.6915 64.6862 88.5384 65.1089C88.3913 65.5317 88.2473 65.9881 88.1064 66.4783L88.3362 65.3019C88.5384 64.7015 88.7252 64.196 88.8968 63.7855C89.0745 63.375 89.2491 63.0442 89.4206 62.793C89.5922 62.5357 89.7668 62.3519 89.9445 62.2416C90.1283 62.1252 90.3213 62.067 90.5235 62.067C90.695 62.067 90.8267 62.116 90.9187 62.214C91.0167 62.312 91.0657 62.4376 91.0657 62.5908C91.0657 62.7133 91.0351 62.8267 90.9738 62.9308C90.9125 63.0289 90.8329 63.1085 90.7348 63.1698C90.6429 63.2249 90.5388 63.2525 90.4224 63.2525C90.3182 63.2525 90.2294 63.2249 90.1559 63.1698C90.0885 63.1085 90.0548 63.0258 90.0548 62.9217C90.0548 62.8236 90.0731 62.7378 90.1099 62.6643C90.1467 62.5847 90.1957 62.5173 90.257 62.4621C90.3182 62.407 90.3887 62.3641 90.4683 62.3335C90.4561 62.3212 90.4408 62.312 90.4224 62.3059C90.4101 62.2998 90.3917 62.2967 90.3672 62.2967Z" fill="white"/>
</g>
<defs>
<clipPath id="clip0_238_2">
<rect width="141" height="78" fill="white"/>
</clipPath>
</defs>
</svg>
